<svg xmlns="http://www.w3.org/2000/svg" version="1.1" viewBox="0 0 501 535" preserveAspectRatio="xMidYMid meet">


<path d="M0 0 C2.938 1.687 2.938 1.687 5.5 3.438 C8.75 5.104 10.467 4.647 13.938 3.688 C14.84 3.179 14.84 3.179 15.762 2.66 C20.737 0.436 27.103 0.943 32.289 2.305 C37.654 4.645 41.425 8.412 43.938 13.688 C44.686 16.965 45.132 20.184 45.512 23.523 C45.889 26.324 46.465 28.614 47.438 31.25 C51.16 41.52 51.276 52.258 51.25 63.062 C51.266 64.37 51.282 65.677 51.299 67.023 C51.304 77.88 49.549 87.8 46.25 98.125 C44.491 103.816 44.491 103.816 44.938 109.688 C48.255 112.632 51.986 114.712 55.938 116.688 C55.607 117.678 55.278 118.668 54.938 119.688 C53.947 119.688 52.957 119.688 51.938 119.688 C52.928 121.998 53.918 124.308 54.938 126.688 C47.158 126.089 41.085 122.314 36 116.562 C32.786 112.657 30.689 110.079 30.77 104.898 C31.156 92.902 31.156 92.902 27.438 81.812 C23.947 78.501 21.082 78.352 16.499 78.413 C15.726 78.439 14.953 78.465 14.156 78.492 C13.366 78.506 12.575 78.52 11.761 78.535 C9.819 78.572 7.878 78.628 5.938 78.688 C5.839 84.596 5.766 90.503 5.718 96.412 C5.698 98.422 5.67 100.432 5.636 102.441 C5.587 105.331 5.565 108.22 5.547 111.109 C5.526 112.007 5.506 112.905 5.484 113.831 C5.392 118.907 5.392 118.907 7.97 123.118 C8.619 123.636 9.268 124.154 9.938 124.688 C9.812 127.375 9.812 127.375 8.938 129.688 C6.236 131.038 3.819 131.026 0.812 131.25 C-0.283 131.334 -1.379 131.418 -2.508 131.504 C-3.351 131.564 -4.194 131.625 -5.062 131.688 C-4.561 132.291 -4.06 132.894 -3.543 133.516 C-2.062 135.688 -2.062 135.688 -2.375 138.438 C-2.715 139.551 -2.715 139.551 -3.062 140.688 C-7.531 141.947 -11.823 141.909 -16.438 141.938 C-17.694 141.968 -17.694 141.968 -18.977 142 C-24.125 142.032 -27.561 141.474 -32.062 138.688 C-32.055 137.806 -32.055 137.806 -32.047 136.906 C-31.956 125.116 -32.038 113.438 -33.062 101.688 C-34.053 101.904 -34.053 101.904 -35.062 102.125 C-46.663 104.3 -58.306 103.874 -70.062 103.688 C-70.171 106.105 -70.25 108.518 -70.312 110.938 C-70.346 111.619 -70.38 112.301 -70.414 113.004 C-70.483 116.561 -70.423 118.272 -68.051 121.008 C-67.395 121.562 -66.739 122.116 -66.062 122.688 C-66 125.312 -66 125.312 -67.062 127.688 C-71.342 130.007 -75.622 130.109 -80.375 130.312 C-81.116 130.351 -81.856 130.39 -82.619 130.43 C-84.433 130.523 -86.248 130.606 -88.062 130.688 C-87.403 131.678 -86.743 132.668 -86.062 133.688 C-86.188 135.75 -86.188 135.75 -87.062 137.688 C-91.367 140.344 -95.463 140.019 -100.375 140 C-101.619 140.024 -101.619 140.024 -102.889 140.049 C-108.377 140.053 -112.171 139.189 -117.062 136.688 C-117.028 135.496 -116.993 134.305 -116.957 133.078 C-116.728 121.231 -117.536 109.728 -118.925 97.963 C-119.835 90.184 -120.48 82.468 -120.595 74.634 C-120.7 71.036 -121.133 68.526 -122.582 65.203 C-124.361 60.979 -124.411 57.757 -124.25 53.25 C-124.23 52.153 -124.23 52.153 -124.209 51.033 C-124.174 49.251 -124.12 47.469 -124.062 45.688 C-127.687 48.989 -129.728 51.505 -131.188 56.188 C-134.106 65.382 -134.106 65.382 -138.105 68.051 C-138.813 68.364 -139.521 68.677 -140.25 69 C-140.965 69.326 -141.681 69.652 -142.418 69.988 C-143.232 70.334 -143.232 70.334 -144.062 70.688 C-144.062 70.028 -144.062 69.368 -144.062 68.688 C-145.382 68.028 -146.702 67.368 -148.062 66.688 C-145.062 64.688 -145.062 64.688 -141.562 64.062 C-137.719 63.014 -137.719 63.014 -136.375 59.125 C-135.924 57.65 -135.487 56.171 -135.062 54.688 C-132.288 46.331 -126.963 40.091 -121.447 33.394 C-120.198 31.854 -118.996 30.277 -117.801 28.695 C-109.278 17.574 -98.807 10.354 -86.062 4.688 C-85.406 4.372 -84.75 4.056 -84.074 3.73 C-75.636 -0.207 -67.054 -0.67 -57.875 -0.625 C-56.223 -0.623 -56.223 -0.623 -54.538 -0.621 C-47.29 -0.536 -40.742 0.11 -33.734 2.031 C-29.054 3.181 -26.85 3.146 -22.625 0.688 C-16.093 -2.802 -6.836 -2.818 0 0 Z " fill="#580132" transform="translate(287.0625,199.3125)"/>
<path d="M0 0 C1.417 -0.027 2.833 -0.047 4.25 -0.062 C5.433 -0.08 5.433 -0.08 6.641 -0.098 C8.907 -0.004 10.829 0.368 13 1 C13.115 8.41 12.912 15.642 12 23 C13.901 20.984 15.796 18.962 17.688 16.938 C18.218 16.376 18.748 15.815 19.295 15.236 C22.017 12.314 24.39 9.465 26.543 6.098 C29 3 29 3 31.789 2.281 C32.725 2.353 33.661 2.426 34.625 2.5 C36.037 2.577 36.037 2.577 37.477 2.656 C40 3 40 3 43 4 C41.471 7.537 39.358 9.996 36.75 12.812 C35.953 13.689 35.157 14.566 34.336 15.469 C32.919 17.004 31.49 18.528 30.039 20.031 C28.165 21.971 28.165 21.971 26 25 C26.293 29.324 28.266 33.003 30.16 36.832 C30.469 37.469 30.779 38.105 31.098 38.761 C32.08 40.781 33.071 42.797 34.062 44.812 C34.733 46.187 35.403 47.561 36.072 48.936 C37.709 52.293 39.352 55.648 41 59 C44.419 56.97 47.67 54.856 50.875 52.5 C52.312 51.446 52.312 51.446 53.777 50.371 C54.294 49.991 54.811 49.61 55.343 49.218 C57.103 47.925 58.865 46.636 60.629 45.348 C69.294 39.014 77.953 32.668 86.449 26.109 C87.167 25.558 87.885 25.006 88.625 24.438 C89.236 23.962 89.847 23.486 90.477 22.996 C92 22 92 22 94 22 C93.565 25.396 93.127 28.792 92.688 32.188 C92.486 33.749 92.486 33.749 92.28 35.341 C91.394 42.133 90.438 48.911 89.438 55.688 C87.959 65.761 86.926 75.862 86 86 C92.156 82.755 98.073 79.373 103.812 75.438 C106.031 73.98 108.291 72.699 110.625 71.438 C114.061 69.576 117.177 67.507 120.316 65.188 C122.017 63.988 123.748 62.954 125.562 61.938 C127.928 60.604 130.094 59.284 132.312 57.75 C135 56 135 56 137 56 C146.982 68.382 154.071 83.003 153 99 C151.737 106.322 147.843 111.519 143 117 C142.533 117.535 142.067 118.07 141.586 118.621 C135.491 123.92 126.711 124.604 119.004 124.312 C109.028 123.275 101.448 117.333 95.217 109.671 C93.556 107.39 92.25 104.976 90.918 102.492 C86.551 94.411 82.34 90.329 74 86 C74.33 81.71 74.66 77.42 75 73 C73.35 72.34 71.7 71.68 70 71 C66.913 69.171 63.876 67.274 60.84 65.363 C58.189 63.802 58.189 63.802 55.777 64.16 C53.764 65.008 53.764 65.008 51.625 67.125 C49 69 49 69 46.238 68.637 C44.635 68.322 44.635 68.322 43 68 C41.949 67.963 40.899 67.925 39.816 67.887 C31.274 67.364 31.274 67.364 27.777 63.621 C25.917 60.484 24.414 57.361 23 54 C22.566 52.997 22.131 51.994 21.684 50.961 C20.857 48.998 20.051 47.026 19.266 45.047 C17.125 39.894 14.557 34.956 12 30 C11.67 30 11.34 30 11 30 C10.914 30.994 10.829 31.989 10.74 33.013 C10.423 36.691 10.099 40.368 9.773 44.044 C9.633 45.638 9.494 47.232 9.357 48.825 C9.16 51.112 8.958 53.398 8.754 55.684 C8.693 56.4 8.633 57.117 8.571 57.855 C8.114 62.886 8.114 62.886 7 64 C-0.294 64.235 -0.294 64.235 -4 63 C-4.029 59.729 -4.047 56.458 -4.062 53.188 C-4.071 52.259 -4.079 51.33 -4.088 50.373 C-4.091 49.48 -4.094 48.588 -4.098 47.668 C-4.103 46.846 -4.108 46.024 -4.114 45.177 C-4 43 -4 43 -3 40 C-2.815 37.205 -2.673 34.423 -2.562 31.625 C-2.084 21.044 -1.08 10.534 0 0 Z " fill="#EEFABF" transform="translate(232,53)"/>
<path d="M0 0 C2.316 1.398 2.316 1.398 4.562 3 C5.376 3.57 6.189 4.14 7.027 4.727 C13.108 9.516 16.086 14.405 17.562 22 C18.799 32.441 17.133 40.278 11.234 48.953 C6.119 54.93 -1.575 57.905 -8.576 61.138 C-10.16 61.871 -11.732 62.63 -13.301 63.395 C-17.295 65.294 -19.947 66.186 -24.438 66 C-25.63 63.137 -26.823 60.274 -28.016 57.41 C-28.899 55.292 -29.784 53.175 -30.672 51.059 C-33.242 44.925 -35.744 38.766 -38.198 32.585 C-40.175 27.617 -42.243 22.691 -44.359 17.781 C-45.609 14.558 -46.529 11.335 -47.438 8 C-14.268 -6.276 -14.268 -6.276 0 0 Z " fill="#EEFABF" transform="translate(199.4375,69)"/>
<path d="M0 0 C0.66 0 1.32 0 2 0 C2.009 0.737 2.019 1.474 2.028 2.234 C2.968 61.9 19.726 112.142 63.004 154.195 C66.78 157.782 70.758 160.982 75 164 C75.741 164.547 76.482 165.093 77.246 165.656 C93.745 177.577 111.659 186.682 131 193 C132.303 193.445 132.303 193.445 133.633 193.898 C139.165 195.695 144.674 196.684 150.434 197.473 C152.33 197.753 154.227 198.053 156.093 198.492 C165.261 200.535 174.504 200.336 183.847 200.316 C186.768 200.313 189.687 200.336 192.607 200.361 C202.441 200.395 212.072 199.971 221.824 198.66 C222.7 198.543 223.576 198.425 224.478 198.304 C232.919 197.052 240.891 194.585 248.915 191.733 C250.795 191.072 252.692 190.459 254.59 189.852 C269.671 184.889 284.218 177.407 297 168 C298.042 167.242 299.083 166.484 300.156 165.703 C316.235 153.789 330.824 139.655 342 123 C342.385 122.428 342.77 121.857 343.167 121.268 C352.937 106.624 360.792 90.843 366 74 C366.373 72.828 366.373 72.828 366.754 71.632 C374.124 48.143 374.362 24.418 375 0 C375.99 0 376.98 0 378 0 C378.478 35.345 375.627 69.101 359 101 C358.672 101.635 358.343 102.269 358.005 102.923 C349.369 119.411 338.511 134.25 326 148 C325.327 148.745 324.654 149.49 323.961 150.258 C310.892 163.994 292.506 177.81 275 185 C273.703 185.635 272.412 186.282 271.125 186.938 C264.345 190.354 257.696 193.218 250.379 195.285 C247.756 196.03 247.756 196.03 244.375 197.5 C237.891 199.992 230.836 200.93 224 202 C222.947 202.172 221.895 202.344 220.811 202.521 C210.389 204.087 200.148 204.396 189.625 204.375 C188.315 204.376 188.315 204.376 186.978 204.376 C172.288 204.354 158.392 203.092 144 200 C142.136 199.66 142.136 199.66 140.234 199.312 C107.926 192.946 78.435 173.371 55 151 C53.703 149.782 53.703 149.782 52.379 148.539 C32.714 129.58 17.178 103.726 8.91 77.785 C8.128 75.392 7.257 73.082 6.312 70.75 C4.9 66.714 4.446 63.232 4 59 C3.67 58.67 3.34 58.34 3 58 C-1.235 38.953 -0.301 19.38 0 0 Z " fill="#701330" transform="translate(52,299)"/>
<path d="M0 0 C1.017 -0.007 2.035 -0.013 3.083 -0.02 C5.228 -0.03 7.372 -0.035 9.517 -0.035 C12.716 -0.039 15.914 -0.075 19.113 -0.113 C37.249 -0.213 55.214 1.714 72.453 7.648 C73.352 7.947 74.252 8.245 75.178 8.553 C87.723 12.811 99.415 18.351 111.004 24.734 C113.942 26.404 113.942 26.404 117.016 27.336 C117.016 27.996 117.016 28.656 117.016 29.336 C117.725 29.582 118.434 29.828 119.164 30.082 C124.691 32.512 129.282 36.633 134.016 40.336 C134.941 41.053 135.867 41.769 136.82 42.508 C148.904 52.105 158.82 62.996 168.016 75.336 C168.951 76.562 168.951 76.562 169.906 77.812 C186.362 100.19 198.122 127.861 202.016 155.336 C202.117 155.995 202.219 156.654 202.323 157.333 C204.488 171.614 204.224 185.926 204.016 200.336 C203.026 200.336 202.036 200.336 201.016 200.336 C200.991 199.616 200.966 198.897 200.94 198.156 C199.816 159.361 199.816 159.361 189.016 122.336 C188.448 120.88 187.885 119.422 187.328 117.961 C185.395 113.12 183.266 108.379 181.078 103.648 C180.754 102.936 180.431 102.223 180.097 101.489 C177.846 96.679 175.176 92.602 172.016 88.336 C171.149 86.758 171.149 86.758 170.266 85.148 C151.728 52.29 114.073 23.883 78.082 13.098 C74.407 12.107 70.719 11.214 67.016 10.336 C63.321 9.322 59.631 8.296 55.941 7.266 C46.861 4.987 37.884 4.026 28.539 4.035 C27.489 4.031 26.439 4.027 25.357 4.022 C23.15 4.016 20.943 4.016 18.737 4.02 C15.419 4.023 12.103 4 8.785 3.975 C-9.986 3.919 -28.254 5.8 -45.923 12.555 C-47.851 13.285 -49.794 13.974 -51.738 14.66 C-59.497 17.417 -66.763 20.559 -73.936 24.62 C-77.536 26.646 -81.024 28.156 -84.984 29.336 C-84.984 29.996 -84.984 30.656 -84.984 31.336 C-86.82 32.562 -86.82 32.562 -89.359 33.961 C-101.258 40.889 -111.317 50.621 -120.984 60.336 C-121.535 60.852 -122.085 61.367 -122.652 61.898 C-130.637 69.452 -137.257 78.581 -142.699 88.102 C-143.847 90.098 -145.078 91.987 -146.359 93.898 C-153.59 105.454 -158.481 118.529 -162.984 131.336 C-163.516 132.809 -163.516 132.809 -164.059 134.312 C-165.14 137.844 -165.816 141.388 -166.422 145.023 C-166.547 145.765 -166.672 146.507 -166.8 147.272 C-167.063 148.842 -167.325 150.412 -167.584 151.983 C-167.967 154.235 -168.383 156.478 -168.809 158.723 C-171.323 172.524 -171.7 186.333 -171.984 200.336 C-172.644 200.336 -173.304 200.336 -173.984 200.336 C-174.317 182.779 -174.456 165.633 -170.984 148.336 C-170.791 147.325 -170.791 147.325 -170.595 146.294 C-165.961 122.748 -155.652 98.391 -140.984 79.336 C-140.237 78.325 -139.489 77.315 -138.719 76.273 C-132.931 68.512 -126.664 61.339 -119.984 54.336 C-119.296 53.606 -118.608 52.877 -117.898 52.125 C-105.961 39.798 -91.376 28.955 -75.984 21.336 C-75.302 20.992 -74.621 20.648 -73.918 20.293 C-63.175 14.894 -52.585 10.482 -40.984 7.336 C-40.205 7.12 -39.426 6.903 -38.623 6.68 C-36.142 5.993 -33.658 5.318 -31.172 4.648 C-30.42 4.446 -29.668 4.243 -28.893 4.034 C-19.266 1.521 -9.961 0.024 0 0 Z " fill="#78192F" transform="translate(225.984375,35.6640625)"/>
<path d="M0 0 C2.44 1.196 4.201 2.684 6.203 4.52 C6.91 5.16 7.616 5.801 8.344 6.461 C8.875 6.955 9.406 7.448 9.953 7.957 C8.953 9.957 8.953 9.957 7.246 10.668 C6.204 10.997 6.204 10.997 5.141 11.332 C1.548 12.633 -0.804 13.727 -3.047 16.957 C-3.855 20.604 -3.855 20.604 -4.047 23.957 C-1.496 25.692 0.02 25.957 3.141 25.957 C7.444 24.828 10.045 22.985 13.637 20.457 C19.337 16.766 25.749 15.206 32.523 15.406 C37.999 16.647 41.47 20.918 44.652 25.293 C47.455 31.034 46.809 38.389 44.828 44.332 C36.598 55.854 36.598 55.854 30.164 57.801 C26.953 57.957 26.953 57.957 24.18 56.121 C23.321 55.283 22.463 54.445 21.578 53.582 C20.267 52.333 20.267 52.333 18.93 51.059 C16.953 48.957 16.953 48.957 16.953 47.957 C18.149 47.71 19.346 47.462 20.578 47.207 C25.733 45.902 29.44 43.763 32.891 39.645 C34.303 36.073 33.805 33.651 32.953 29.957 C31.434 28.437 30.071 28.604 27.953 28.457 C22.635 28.491 20.184 30.777 16.273 34.129 C11.489 37.899 5.879 40.447 -0.297 39.895 C-7.332 38.136 -10.809 35.648 -15.047 29.957 C-17.478 25.096 -16.161 19.499 -14.672 14.52 C-12.515 8.973 -6.721 -0.141 0 0 Z " fill="#EEFABF" transform="translate(107.046875,128.04296875)"/>
<path d="M0 0 C1.766 2.059 1.766 2.059 3.25 4.438 C3.75 5.22 4.25 6.002 4.766 6.809 C7.687 11.994 7.434 17.205 7 23 C4.97 29.597 -0.514 34.107 -6.453 37.332 C-12.298 40 -12.298 40 -15 40 C-18.572 31.461 -22.099 22.908 -25.375 14.25 C-25.625 13.596 -25.875 12.942 -26.133 12.268 C-27.405 8.871 -28.412 5.581 -29 2 C-20.401 -2.438 -8.947 -4.909 0 0 Z " fill="#FA8128" transform="translate(197,81)"/>
<path d="M0 0 C4.92 7.159 7.53 14.35 6 23 C4.37 28.588 1.571 31.878 -3.219 35.09 C-9.223 38.158 -17.032 37.952 -23.312 35.938 C-28.712 32.045 -32.58 26.657 -36 21 C-36 20.34 -36 19.68 -36 19 C-34.48 17.914 -34.48 17.914 -32.188 16.625 C-25.877 12.975 -19.746 9.062 -13.602 5.139 C-12.808 4.634 -12.014 4.13 -11.195 3.609 C-10.484 3.155 -9.773 2.701 -9.04 2.233 C-3.447 -1.149 -3.447 -1.149 0 0 Z " fill="#FA8128" transform="translate(367,127)"/>
<path d="M0 0 C1.445 1.469 1.445 1.469 3.125 3.5 C5.643 6.467 8.222 9.276 11 12 C13.477 14.439 15.82 16.907 18.062 19.562 C22.315 24.527 27.008 29.058 31.67 33.633 C35.02 36.938 38.156 40.234 41 44 C39.618 47.21 38.076 49.049 35.375 51.25 C34.743 51.771 34.112 52.292 33.461 52.828 C32.738 53.408 32.738 53.408 32 54 C24.764 46.855 17.588 39.754 11 32 C6.074 26.406 1.043 20.99 -4.27 15.762 C-6.357 13.637 -8.214 11.382 -10 9 C-8.512 4.984 -4.568 0 0 0 Z " fill="#EEFBC1" transform="translate(131,98)"/>
<path d="M0 0 C0 0.33 0 0.66 0 1 C-14.19 1 -28.38 1 -43 1 C-43 0.67 -43 0.34 -43 0 C-28.691 -1.885 -14.344 -0.92 0 0 Z M-43 1 C-46.692 3.461 -50.146 3.811 -54.438 4.438 C-63.894 5.918 -72.979 7.794 -81.938 11.219 C-83.866 11.949 -85.81 12.638 -87.754 13.324 C-95.513 16.081 -102.779 19.224 -109.951 23.284 C-113.551 25.31 -117.04 26.82 -121 28 C-121 28.66 -121 29.32 -121 30 C-122.836 31.227 -122.836 31.227 -125.375 32.625 C-137.273 39.553 -147.333 49.285 -157 59 C-157.55 59.516 -158.101 60.031 -158.668 60.562 C-166.653 68.116 -173.273 77.245 -178.715 86.766 C-179.863 88.762 -181.094 90.651 -182.375 92.562 C-189.606 104.118 -194.497 117.193 -199 130 C-199.532 131.473 -199.532 131.473 -200.074 132.977 C-201.156 136.508 -201.832 140.052 -202.438 143.688 C-202.562 144.43 -202.687 145.172 -202.816 145.936 C-203.079 147.506 -203.34 149.076 -203.6 150.647 C-203.983 152.899 -204.399 155.142 -204.824 157.387 C-207.338 171.188 -207.716 184.997 -208 199 C-208.66 199 -209.32 199 -210 199 C-210.333 181.443 -210.472 164.297 -207 147 C-206.807 145.989 -206.807 145.989 -206.61 144.958 C-201.977 121.412 -191.667 97.055 -177 78 C-176.252 76.989 -175.505 75.979 -174.734 74.938 C-168.947 67.176 -162.68 60.003 -156 53 C-155.312 52.27 -154.623 51.541 -153.914 50.789 C-141.977 38.462 -127.392 27.62 -112 20 C-111.318 19.656 -110.636 19.312 -109.934 18.957 C-99.176 13.551 -88.586 9.24 -77 6 C-75.761 5.62 -74.522 5.239 -73.246 4.848 C-62.99 1.739 -53.671 0.796 -43 1 Z " fill="#6B0F31" transform="translate(262,37)"/>
<path d="M0 0 C0.66 0 1.32 0 2 0 C2.009 0.737 2.019 1.474 2.028 2.234 C2.968 61.9 19.726 112.142 63.004 154.195 C66.78 157.782 70.758 160.982 75 164 C75.741 164.547 76.482 165.093 77.246 165.656 C97.734 180.459 119.86 189.822 144 197 C144 197.33 144 197.66 144 198 C132.487 198.142 123.383 194.557 113 190 C112.272 189.686 111.544 189.372 110.794 189.049 C89.64 179.853 71.621 166.867 55 151 C53.703 149.782 53.703 149.782 52.379 148.539 C32.714 129.58 17.178 103.726 8.91 77.785 C8.128 75.392 7.257 73.082 6.312 70.75 C4.9 66.714 4.446 63.232 4 59 C3.67 58.67 3.34 58.34 3 58 C-1.235 38.953 -0.301 19.38 0 0 Z M144 198 C148 199 148 199 148 199 Z M148 199 C152 200 152 200 152 200 Z " fill="#721430" transform="translate(52,299)"/>

<path d="M0 0 C-0.928 0.454 -1.856 0.908 -2.812 1.375 C-6.039 2.942 -6.039 2.942 -9 5 C-16.632 8.442 -24.776 9.711 -33 11 C-34.574 11.259 -34.574 11.259 -36.181 11.524 C-46.693 13.111 -57.012 13.352 -67.625 13.312 C-68.501 13.312 -69.377 13.312 -70.279 13.312 C-83.388 13.295 -96.123 12.651 -109 10 C-109 9.34 -109 8.68 -109 8 C-110.32 7.34 -111.64 6.68 -113 6 C-108.106 5.804 -104.593 6.406 -100 8 C-94.026 8.925 -88.187 9.174 -82.148 9.203 C-81.213 9.209 -80.278 9.215 -79.314 9.22 C-77.336 9.23 -75.357 9.236 -73.379 9.24 C-70.432 9.25 -67.486 9.281 -64.539 9.312 C-47.727 9.408 -30.273 8.655 -14.312 2.875 C-13.14 2.479 -13.14 2.479 -11.943 2.074 C-9.956 1.4 -7.977 0.702 -6 0 C-3 -1 -3 -1 0 0 Z M0 0 C0.66 0.33 1.32 0.66 2 1 C0.68 1.33 -0.64 1.66 -2 2 C-1.34 1.34 -0.68 0.68 0 0 Z M-121 6 C-118.36 6.33 -115.72 6.66 -113 7 C-113 7.33 -113 7.66 -113 8 C-115.875 8.125 -115.875 8.125 -119 8 C-119.66 7.34 -120.32 6.68 -121 6 Z M-113 8 C-109 9 -109 9 -109 9 Z " fill="#731530" transform="translate(309,490)"/>
<path d="M0 0 C2.923 1.323 3.837 2.404 6 5 C6.793 8.576 6.357 11.799 5.312 15.312 C2.754 18.602 0.08 19.843 -4 20.438 C-7.748 19.891 -9.309 18.616 -12 16 C-14.339 12.491 -14.413 11.129 -14 7 C-10.987 0.687 -6.875 -1.23 0 0 Z " fill="#F47925" transform="translate(370,393)"/>
<path d="M0 0 C3.954 0.264 5.654 0.861 8.75 3.25 C11.263 7.019 11.28 8.782 10.75 13.25 C8.968 16.224 6.897 18.677 3.75 20.25 C-0.292 20.801 -1.999 20.397 -5.562 18.312 C-8.661 15.435 -9.338 12.552 -9.566 8.406 C-9.048 4.871 -6.988 3.336 -4.25 1.25 C-3.25 0.25 -3.25 0.25 0 0 Z " fill="#F57A25" transform="translate(196.25,445.75)"/>
<path d="M0 0 C0.66 0 1.32 0 2 0 C2.009 0.737 2.019 1.474 2.028 2.234 C2.528 33.947 4.556 71.033 21.742 98.816 C23 101 23 101 23 105 C22.34 105 21.68 105 21 105 C16.961 97.126 13.071 89.312 10 81 C9.566 79.863 9.131 78.726 8.684 77.555 C6.354 71.302 4.522 65.653 4 59 C3.67 58.67 3.34 58.34 3 58 C-1.235 38.953 -0.301 19.38 0 0 Z " fill="#731530" transform="translate(52,299)"/>
<path d="M0 0 C3.062 2.062 3.062 2.062 5 5 C5.54 8.778 5.338 11.146 3.938 14.688 C1.293 17.843 -1.302 19.185 -5 21 C-5.66 21 -6.32 21 -7 21 C-8.202 18.59 -9.387 16.173 -10.562 13.75 C-11.076 12.727 -11.076 12.727 -11.6 11.684 C-14.074 6.534 -14.074 6.534 -13.701 3.847 C-13 2 -13 2 -11.215 0.777 C-7.443 -0.547 -3.933 -0.672 0 0 Z " fill="#F47925" transform="translate(315,438)"/>
<path d="M0 0 C0 3 0 3 0 3 Z M-2 3 C-1 6 -1 6 -2.418 9.496 C-4.493 14.67 -4.406 19.552 -4.312 25.062 C-4.316 26.017 -4.319 26.972 -4.322 27.955 C-4.256 36.646 -2.746 45.948 3.453 52.547 C8.416 56.808 12.347 58.531 18.82 58.383 C23.405 57.578 25.429 53.785 28 50.25 C30.312 47.649 31.593 47.284 35 47 C33.625 48.5 33.625 48.5 32 50 C31.34 50 30.68 50 30 50 C29.732 50.557 29.464 51.114 29.188 51.688 C27.891 54.212 26.575 56.637 25 59 C24.34 59 23.68 59 23 59 C23 59.66 23 60.32 23 61 C14.348 61.867 8.457 61.224 1.316 56.059 C-4.834 50.592 -7.516 43.865 -8.19 35.703 C-8.267 33.299 -8.273 30.906 -8.25 28.5 C-8.258 27.697 -8.265 26.894 -8.273 26.066 C-8.25 18.866 -7.389 8.389 -2 3 Z " fill="#E56E26" transform="translate(252,212)"/>
<path d="M0 0 C0 0.33 0 0.66 0 1 C-12.375 1.99 -12.375 1.99 -25 3 C-17.059 -0.971 -8.714 -0.109 0 0 Z M15 0 C37.905 -0.903 58.437 3.453 80 11 C79.67 11.66 79.34 12.32 79 13 C70.198 11.646 61.704 9.413 53.137 7 C51.76 6.656 50.381 6.324 49 6 C48.241 5.819 47.481 5.638 46.699 5.452 C35.55 3.201 24.076 3.538 12.75 3.375 C10.54 3.337 8.331 3.298 6.121 3.258 C0.748 3.163 -4.626 3.077 -10 3 C-10 2.67 -10 2.34 -10 2 C2.375 1.505 2.375 1.505 15 1 C15 0.67 15 0.34 15 0 Z " fill="#942F2D" transform="translate(229,36)"/>
<path d="M0 0 C4.443 2.057 8.383 4.203 12.312 7.125 C29.894 19.672 50.465 26.929 71 33 C71 33.33 71 33.66 71 34 C59.487 34.142 50.383 30.557 40 26 C39.272 25.686 38.544 25.372 37.794 25.049 C29.664 21.515 21.913 17.546 14.375 12.875 C13.736 12.479 13.097 12.084 12.439 11.677 C8.028 8.857 3.622 5.806 0 2 C0 1.34 0 0.68 0 0 Z M71 34 C75 35 75 35 75 35 Z M75 35 C79 36 79 36 79 36 Z " fill="#741630" transform="translate(125,463)"/>
<path d="M0 0 C5.294 2.576 5.294 2.576 7 5 C6.688 7.688 6.688 7.688 6 10 C4.68 10.33 3.36 10.66 2 11 C2.062 11.928 2.124 12.856 2.188 13.812 C2 17 2 17 0.875 18.938 C-1 20 -1 20 -3.875 19.938 C-7.354 18.894 -9.335 17.43 -12 15 C-10.385 11.101 -7.721 8.287 -4.875 5.25 C-4.407 4.743 -3.939 4.237 -3.457 3.715 C-2.309 2.473 -1.155 1.236 0 0 Z " fill="#761730" transform="translate(139,412)"/>
<path d="M0 0 C8.569 1.224 15.528 5.044 23.101 9.01 C25.717 10.374 28.357 11.688 31 13 C32.333 13.667 33.667 14.333 35 15 C35 15.66 35 16.32 35 17 C35.703 17.241 36.405 17.482 37.129 17.73 C40.468 19.207 43.04 21.094 45.938 23.312 C46.983 24.112 48.028 24.911 49.105 25.734 C52.126 28.099 55.093 30.497 58 33 C57.505 33.99 57.505 33.99 57 35 C52.258 31.909 47.634 28.735 43.125 25.312 C29.804 15.596 15.175 8.327 0 2 C0 1.34 0 0.68 0 0 Z M61 38 C64.215 39.408 66.322 41.103 68.75 43.625 C69.67 44.572 69.67 44.572 70.609 45.539 C71.298 46.262 71.298 46.262 72 47 C71.67 47.66 71.34 48.32 71 49 C69.515 47.737 68.037 46.464 66.562 45.188 C65.739 44.48 64.915 43.772 64.066 43.043 C62 41 62 41 61 38 Z M74 51 C75.98 51.99 75.98 51.99 78 53 C77.01 53 76.02 53 75 53 C74.67 52.34 74.34 51.68 74 51 Z " fill="#6D1130" transform="translate(308,48)"/>
<path d="M0 0 C0.66 0.33 1.32 0.66 2 1 C-0.97 3.475 -0.97 3.475 -4 6 C-2.848 3.532 -1.952 1.952 0 0 Z M-8 5 C-7.34 5.33 -6.68 5.66 -6 6 C-10.449 12.322 -16.034 16.649 -22.312 21 C-23.034 21.508 -23.755 22.016 -24.498 22.539 C-31.43 27.388 -38.153 31.777 -46 35 C-47.38 35.677 -48.755 36.365 -50.125 37.062 C-58.572 41.31 -58.572 41.31 -64 41 C-61.557 38.203 -59.021 36.897 -55.66 35.363 C-54.603 34.873 -53.545 34.382 -52.456 33.876 C-51.336 33.36 -50.216 32.844 -49.062 32.312 C-40.162 28.119 -31.85 23.972 -24 18 C-23.444 17.584 -22.887 17.169 -22.314 16.741 C-14.8 11.283 -14.8 11.283 -8 5 Z M-66 41 C-64 42 -64 42 -64 42 Z M-69 42 C-68.01 42.33 -67.02 42.66 -66 43 C-67.65 43.33 -69.3 43.66 -71 44 C-70.34 43.34 -69.68 42.68 -69 42 Z " fill="#731630" transform="translate(373,449)"/>
<path d="M0 0 C0.99 0 1.98 0 3 0 C3.311 22.97 2.571 44.609 -3 67 C-3.144 66.402 -3.289 65.804 -3.438 65.188 C-3.887 63.438 -4.429 61.713 -5 60 C-4.533 58.096 -4.06 56.194 -3.547 54.302 C-2.569 50.189 -2.28 46.019 -1.938 41.812 C-1.855 40.843 -1.773 39.874 -1.688 38.875 C-0.662 25.941 -0.339 12.967 0 0 Z " fill="#7E1E2F" transform="translate(427,299)"/>
<path d="M0 0 C0 0.33 0 0.66 0 1 C-14.19 1 -28.38 1 -43 1 C-43 0.67 -43 0.34 -43 0 C-28.691 -1.885 -14.344 -0.92 0 0 Z M-43 1 C-46.692 3.461 -50.146 3.811 -54.438 4.438 C-64.652 6.037 -74.369 8.181 -84 12 C-90.3 14.423 -90.3 14.423 -94 13 C-93 11 -93 11 -89.895 9.852 C-88.536 9.434 -87.176 9.026 -85.812 8.625 C-85.094 8.409 -84.376 8.193 -83.636 7.97 C-82.15 7.524 -80.662 7.082 -79.173 6.644 C-77.169 6.05 -75.172 5.438 -73.176 4.82 C-62.943 1.736 -53.644 0.796 -43 1 Z " fill="#660B31" transform="translate(262,37)"/>
<path d="M0 0 C2.673 2.673 2.873 5.408 3.5 9 C3.627 9.716 3.753 10.431 3.884 11.169 C4.274 13.443 4.642 15.72 5 18 C5.109 18.687 5.218 19.373 5.33 20.081 C7.483 34.33 7.208 48.623 7 63 C6.01 63 5.02 63 4 63 C3.975 62.28 3.95 61.561 3.924 60.82 C3.299 36.764 3.299 36.764 -0.072 12.996 C-1.006 8.264 -0.913 4.661 0 0 Z " fill="#781A2F" transform="translate(423,173)"/>
<path d="M0 0 C-0.142 1.584 -0.289 3.167 -0.438 4.75 C-0.519 5.632 -0.6 6.513 -0.684 7.422 C-0.962 9.694 -1.388 11.799 -2 14 C-1.448 13.836 -0.897 13.673 -0.328 13.504 C2.266 12.942 4.598 12.903 7.25 12.938 C8.142 12.947 9.034 12.956 9.953 12.965 C10.629 12.976 11.304 12.988 12 13 C8.876 16.225 5.637 19.294 2.312 22.312 C1.546 23.01 0.779 23.707 -0.012 24.426 C-2 26 -2 26 -4 26 C-4 25.01 -4 24.02 -4 23 C-2.371 21.621 -0.703 20.287 1 19 C1.33 18.34 1.66 17.68 2 17 C-0.64 17 -3.28 17 -6 17 C-5.67 14.03 -5.34 11.06 -5 8 C-6.114 8.99 -7.228 9.98 -8.375 11 C-11.75 14 -11.75 14 -14 14 C-12.434 9.985 -9.596 7.533 -6.438 4.75 C-5.93 4.291 -5.423 3.832 -4.9 3.359 C-1.146 0 -1.146 0 0 0 Z " fill="#8D292E" transform="translate(122,392)"/>
<path d="M0 0 C7.158 -0.358 7.158 -0.358 10.5 1.062 C12 3 12 3 12.5 6.5 C12 10 12 10 10.25 11.938 C8 13 8 13 4 13 C4 15.31 4 17.62 4 20 C3.34 20 2.68 20 2 20 C-0.9 14.2 -0.1 6.318 0 0 Z " fill="#791A2F" transform="translate(251,452)"/>
<path d="M0 0 C0.66 0 1.32 0 2 0 C0.776 8.408 -0.675 16.743 -2.316 25.078 C-3.881 34.052 -4.267 42.965 -4.562 52.062 C-4.606 53.31 -4.649 54.557 -4.693 55.842 C-4.799 58.894 -4.901 61.947 -5 65 C-5.66 65 -6.32 65 -7 65 C-7.333 47.45 -7.453 30.297 -4 13 C-3.842 12.2 -3.685 11.401 -3.522 10.577 C-2.721 6.729 -1.875 3.483 0 0 Z " fill="#78192F" transform="translate(59,171)"/>
<path d="M0 0 C4.235 3.986 7.574 8.299 11 13 C11.66 9.04 12.32 5.08 13 1 C13.99 1 14.98 1 16 1 C15.67 7.93 15.34 14.86 15 22 C14.34 22 13.68 22 13 22 C11.633 20.207 11.633 20.207 10.125 17.812 C7.914 14.376 5.63 11.136 3 8 C2.34 11.63 1.68 15.26 1 19 C0.01 19.33 -0.98 19.66 -2 20 C-1.858 17.604 -1.712 15.208 -1.562 12.812 C-1.523 12.139 -1.484 11.465 -1.443 10.771 C-1.211 7.103 -0.828 3.583 0 0 Z " fill="#791A2F" transform="translate(216,451)"/>
<path d="M0 0 C0.66 0.66 1.32 1.32 2 2 C1.918 3.258 1.835 4.516 1.75 5.812 C1.635 8.986 1.635 8.986 3.328 11.566 C4.85 12.758 6.423 13.883 8 15 C8 15.66 8 16.32 8 17 C3.724 16.525 1.931 13.931 -1 11 C-3.173 10.139 -3.173 10.139 -5 10 C-4.67 10.908 -4.34 11.815 -4 12.75 C-3 16 -3 16 -3 20 C-3.99 19.67 -4.98 19.34 -6 19 C-6.505 16.584 -7.004 14.168 -7.5 11.75 C-7.643 11.068 -7.786 10.386 -7.934 9.684 C-8.613 6.354 -9 3.417 -9 0 C-5.678 -1.107 -3.359 -0.972 0 0 Z " fill="#6A0E31" transform="translate(279,450)"/>
<path d="M0 0 C3.954 0.264 5.654 0.861 8.75 3.25 C11.263 7.019 11.28 8.782 10.75 13.25 C8.968 16.224 6.897 18.677 3.75 20.25 C-0.292 20.801 -1.999 20.397 -5.562 18.312 C-8.661 15.435 -9.338 12.552 -9.566 8.406 C-9.048 4.871 -6.988 3.336 -4.25 1.25 C-3.25 0.25 -3.25 0.25 0 0 Z M-6.25 6.25 C-6.773 9.911 -6.654 12.266 -5.25 15.688 C-2.539 17.805 -0.501 17.821 2.875 17.629 C4.913 17.362 4.913 17.362 6.75 15.688 C8.139 12.302 8.203 9.875 7.75 6.25 C5.799 3.431 4.675 2.44 1.312 1.75 C-2.242 2.444 -3.831 3.555 -6.25 6.25 Z " fill="#6D1130" transform="translate(196.25,445.75)"/>

<path d="M0 0 C-1 3 -1 3 -2.758 3.887 C-3.539 4.151 -4.32 4.415 -5.125 4.688 C-10.712 6.752 -15.801 9.475 -20.997 12.358 C-25.803 15 -25.803 15 -28 15 C-28 15.66 -28 16.32 -28 17 C-30.012 18.367 -30.012 18.367 -32.688 19.875 C-36.384 22.014 -39.761 24.193 -43 27 C-43.66 26.67 -44.32 26.34 -45 26 C-43.592 22.583 -42.106 21.088 -39 19.125 C-38.185 18.608 -37.371 18.091 -36.531 17.559 C-35.278 16.787 -35.278 16.787 -34 16 C-33.268 15.537 -32.536 15.074 -31.781 14.598 C-26.373 11.254 -20.799 8.235 -15.188 5.25 C-14.458 4.861 -13.728 4.472 -12.977 4.071 C-2.695 -1.348 -2.695 -1.348 0 0 Z " fill="#731530" transform="translate(169,50)"/>
<path d="M0 0 C3.062 2.062 3.062 2.062 5 5 C5.54 8.778 5.338 11.146 3.938 14.688 C1.293 17.843 -1.302 19.185 -5 21 C-5.66 21 -6.32 21 -7 21 C-8.202 18.59 -9.387 16.173 -10.562 13.75 C-11.076 12.727 -11.076 12.727 -11.6 11.684 C-14.074 6.534 -14.074 6.534 -13.701 3.847 C-13 2 -13 2 -11.215 0.777 C-7.443 -0.547 -3.933 -0.672 0 0 Z M-11 4 C-10.517 9.155 -7.814 12.816 -5 17 C-1.968 16.406 -1.032 16.03 1.312 13.812 C3.268 11.1 3.268 11.1 3 7.875 C1.839 4.537 1.163 3.539 -2 2 C-6.103 1.581 -7.511 1.674 -11 4 Z " fill="#721530" transform="translate(315,438)"/>
<path d="M0 0 C2.923 1.323 3.837 2.404 6 5 C6.793 8.576 6.357 11.799 5.312 15.312 C2.754 18.602 0.08 19.843 -4 20.438 C-7.748 19.891 -9.309 18.616 -12 16 C-14.339 12.491 -14.413 11.129 -14 7 C-10.987 0.687 -6.875 -1.23 0 0 Z M-9.375 3.562 C-11.623 6.935 -11.568 9.025 -11 13 C-9.52 15.563 -9.52 15.563 -7 17 C-3.225 17.643 -1.494 17.268 1.875 15.438 C4.295 13.084 4.295 13.084 4.625 9.5 C4.295 5.916 4.295 5.916 1.875 3.562 C-2.375 1.253 -5.25 0.848 -9.375 3.562 Z " fill="#771830" transform="translate(370,393)"/>
<path d="M0 0 C2.64 0.33 5.28 0.66 8 1 C8 1.33 8 1.66 8 2 C5.125 2.125 5.125 2.125 2 2 C1.34 1.34 0.68 0.68 0 0 Z M8 0 C12.894 -0.196 16.407 0.406 21 2 C26.566 2.833 32.035 3.19 37.656 3.316 C38.838 3.348 38.838 3.348 40.043 3.379 C42.529 3.444 45.014 3.503 47.5 3.562 C49.198 3.606 50.896 3.649 52.594 3.693 C56.729 3.8 60.864 3.901 65 4 C65 4.33 65 4.66 65 5 C59.39 5 53.78 5 48 5 C48 5.66 48 6.32 48 7 C35.743 7.508 24.081 5.969 12 4 C12 3.34 12 2.68 12 2 C10.68 1.34 9.36 0.68 8 0 Z M8 2 C12 3 12 3 12 3 Z " fill="#82212F" transform="translate(188,496)"/>
<path d="M0 0 C2.803 5.606 -1.948 15.847 -3.727 21.477 C-5.158 25.436 -6.791 29.245 -8.562 33.062 C-8.855 33.694 -9.148 34.325 -9.45 34.975 C-11.012 38.237 -12.571 41.301 -15 44 C-15.66 44 -16.32 44 -17 44 C-15.86 40.165 -14.384 36.612 -12.688 33 C-8.253 23.387 -5.041 13.294 -1.797 3.23 C-1 1 -1 1 0 0 Z " fill="#721530" transform="translate(423,360)"/>
<path d="M0 0 C-1.751 3.886 -4.183 7.278 -6.625 10.75 C-7.045 11.352 -7.465 11.954 -7.898 12.574 C-8.93 14.051 -9.965 15.526 -11 17 C-11.66 16.67 -12.32 16.34 -13 16 C-12.649 15.319 -12.299 14.639 -11.938 13.938 C-10.774 10.291 -11.272 7.715 -12 4 C-14.64 4.33 -17.28 4.66 -20 5 C-20 4.01 -20 3.02 -20 2 C-13.258 0.742 -6.865 -0.264 0 0 Z " fill="#751730" transform="translate(114,380)"/>
<path d="M0 0 C0.66 0 1.32 0 2 0 C2.02 0.795 2.04 1.589 2.06 2.408 C2.507 22.283 2.507 22.283 4.598 42.031 C4.964 44.735 5.076 47.277 5 50 C4.01 50 3.02 50 2 50 C-0.166 39.172 -0.238 28.681 -0.125 17.688 C-0.115 15.964 -0.106 14.241 -0.098 12.518 C-0.076 8.345 -0.042 4.173 0 0 Z " fill="#6A0F31" transform="translate(52,299)"/>
<path d="M0 0 C1.812 1.125 1.812 1.125 3 3 C3.425 7.078 3.313 8.531 1 12 C-2.5 12.375 -2.5 12.375 -6 12 C-8.313 8.531 -8.425 7.078 -8 3 C-5.905 -0.307 -3.76 -0.564 0 0 Z " fill="#E66F26" transform="translate(313,232)"/>

<path d="M0 0 C0.66 0.33 1.32 0.66 2 1 C-2.076 5.904 -6.302 10.287 -11.16 14.418 C-14.171 17.007 -16.905 19.856 -19.648 22.723 C-23.205 26.38 -26.641 29.342 -31 32 C-29.384 28.099 -26.726 25.285 -23.875 22.25 C-23.381 21.719 -22.886 21.188 -22.377 20.642 C-20.924 19.088 -19.464 17.543 -18 16 C-17.29 15.247 -16.579 14.494 -15.848 13.719 C-10.94 8.661 -5.578 4.298 0 0 Z " fill="#6F1330" transform="translate(124,74)"/>
<path d="M0 0 C-0.812 1.938 -0.812 1.938 -2 4 C-2.99 4.33 -3.98 4.66 -5 5 C-4.67 5.66 -4.34 6.32 -4 7 C-2.02 6.67 -0.04 6.34 2 6 C1.67 7.32 1.34 8.64 1 10 C0.34 10 -0.32 10 -1 10 C-0.01 11.98 0.98 13.96 2 16 C2.763 15.835 3.526 15.67 4.312 15.5 C7 15 7 15 10 15 C10 15.66 10 16.32 10 17 C4.706 21 4.706 21 1 21 C-0.973 18.516 -0.973 18.516 -3.062 15.25 C-3.755 14.183 -4.447 13.115 -5.16 12.016 C-6.569 9.707 -7.854 7.445 -9 5 C-7.879 4.161 -6.753 3.329 -5.625 2.5 C-4.999 2.036 -4.372 1.572 -3.727 1.094 C-2 0 -2 0 0 0 Z " fill="#721530" transform="translate(330,425)"/>

<path d="M0 0 C1.226 3.678 0.703 5.882 0.062 9.688 C-0.132 10.867 -0.327 12.046 -0.527 13.262 C-0.683 14.165 -0.839 15.069 -1 16 C-5.237 15.11 -8.3 13.206 -12 11 C-12 10.34 -12 9.68 -12 9 C-10.031 7.376 -8.067 5.864 -6 4.375 C-5.428 3.955 -4.855 3.535 -4.266 3.102 C-2.848 2.062 -1.425 1.03 0 0 Z " fill="#FA8832" transform="translate(310,99)"/>
<path d="M0 0 C3.875 1.75 3.875 1.75 5 4 C1.125 2.25 1.125 2.25 0 0 Z M4 1 C7.875 2.75 7.875 2.75 9 5 C5.125 3.25 5.125 3.25 4 1 Z M18 14 C19.485 14.99 19.485 14.99 21 16 C20.67 16.66 20.34 17.32 20 18 C19.34 16.68 18.68 15.36 18 14 Z M18 17 C25.356 20.809 29.828 25.833 34 33 C34 33.99 34 34.98 34 36 C30.142 34.714 29.407 33.07 27.125 29.75 C23.857 25.093 23.857 25.093 20 20.938 C19.34 20.298 18.68 19.659 18 19 C18 18.34 18 17.68 18 17 Z " fill="#84222E" transform="translate(362,81)"/>
<path d="M0 0 C2.468 1.152 4.048 2.048 6 4 C5.67 4.99 5.34 5.98 5 7 C4.319 6.257 4.319 6.257 3.625 5.5 C2.124 3.774 2.124 3.774 0 4 C-0.33 4.99 -0.66 5.98 -1 7 C-0.01 7.99 0.98 8.98 2 10 C1.01 10.495 1.01 10.495 0 11 C-2.125 10.062 -2.125 10.062 -4 9 C-5.628 10.81 -5.628 10.81 -7 13 C-6.67 13.99 -6.34 14.98 -6 16 C-4.35 16.33 -2.7 16.66 -1 17 C-1.33 17.66 -1.66 18.32 -2 19 C-5.603 19.412 -6.784 19.154 -9.812 17 C-10.534 16.34 -11.256 15.68 -12 15 C-10.385 11.101 -7.721 8.287 -4.875 5.25 C-4.407 4.743 -3.939 4.237 -3.457 3.715 C-2.309 2.473 -1.155 1.236 0 0 Z " fill="#6B0F31" transform="translate(139,412)"/>
<path d="M0 0 C2.716 2.716 2.96 5.6 3.625 9.25 C3.756 9.96 3.887 10.67 4.022 11.402 C5.476 19.889 5.944 28.551 4 37 C3.67 37 3.34 37 3 37 C2.963 36.259 2.925 35.518 2.887 34.754 C2.425 27.351 1.455 20.258 -0.072 13.002 C-1.004 8.267 -0.913 4.664 0 0 Z " fill="#801F2F" transform="translate(423,173)"/>
<path d="M0 0 C2.222 2.068 3.893 3.797 5.312 6.5 C7.662 9.981 10.279 11.104 14 13 C14 13.99 14 14.98 14 16 C8.125 14.125 8.125 14.125 7 13 C4.817 12.765 2.628 12.586 0.438 12.438 C-0.76 12.354 -1.958 12.27 -3.191 12.184 C-4.118 12.123 -5.045 12.062 -6 12 C-5.67 11.01 -5.34 10.02 -5 9 C-2.36 8.67 0.28 8.34 3 8 C2.505 7.423 2.01 6.845 1.5 6.25 C0 4 0 4 0 0 Z " fill="#741630" transform="translate(374,373)"/>
<path d="M0 0 C-4.256 4.256 -10.54 4.128 -16.25 4.195 C-18.5 4.182 -20.75 4.159 -23 4.125 C-24.156 4.116 -25.313 4.107 -26.504 4.098 C-29.336 4.074 -32.168 4.041 -35 4 C-35 3.34 -35 2.68 -35 2 C-30.855 1.661 -26.709 1.33 -22.562 1 C-21.398 0.905 -20.233 0.809 -19.033 0.711 C-12.664 0.209 -6.388 -0.109 0 0 Z " fill="#660C31" transform="translate(271,499)"/>
<path d="M0 0 C3.63 1.65 7.26 3.3 11 5 C11 5.99 11 6.98 11 8 C8.03 7.505 8.03 7.505 5 7 C2.69 11.62 0.38 16.24 -2 21 C-2.99 20.67 -3.98 20.34 -5 20 C-3.886 16.936 -2.562 14.214 -0.875 11.438 C1.319 8.067 1.319 8.067 1 4 C0.34 3.67 -0.32 3.34 -1 3 C-0.67 2.01 -0.34 1.02 0 0 Z " fill="#660C31" transform="translate(163,430)"/>
<path d="M0 0 C0.33 0 0.66 0 1 0 C0.67 12.21 0.34 24.42 0 37 C-0.66 37 -1.32 37 -2 37 C-2.05 32.695 -2.086 28.39 -2.11 24.085 C-2.12 22.622 -2.133 21.16 -2.151 19.697 C-2.175 17.587 -2.187 15.477 -2.195 13.367 C-2.206 12.1 -2.216 10.833 -2.227 9.527 C-2.001 6.01 -1.272 3.271 0 0 Z " fill="#610731" transform="translate(54,199)"/>
<path d="M0 0 C8.631 1.233 15.689 5.112 23.315 9.117 C25.198 10.104 27.094 11.059 29 12 C29 12.66 29 13.32 29 14 C25.082 13.371 21.855 12.168 18.262 10.496 C17.195 10.003 16.128 9.51 15.029 9.002 C13.927 8.486 12.824 7.969 11.688 7.438 C10.565 6.917 9.443 6.397 8.287 5.861 C5.522 4.579 2.76 3.292 0 2 C0 1.34 0 0.68 0 0 Z " fill="#6D1130" transform="translate(308,48)"/>
<path d="M0 0 C1.066 1.793 1.066 1.793 2 4 C0.938 7.312 0.938 7.312 0.07 9.363 C-1.348 12.857 -2.511 16.419 -3.688 20 C-4.027 21.025 -4.027 21.025 -4.373 22.072 C-4.917 23.714 -5.459 25.357 -6 27 C-6.99 27 -7.98 27 -9 27 C-9.33 27.99 -9.66 28.98 -10 30 C-9.411 25.811 -8.441 22.113 -6.934 18.164 C-6.531 17.101 -6.128 16.037 -5.713 14.941 C-5.292 13.847 -4.871 12.753 -4.438 11.625 C-4.013 10.507 -3.588 9.39 -3.15 8.238 C-2.105 5.49 -1.055 2.744 0 0 Z " fill="#6A0E31" transform="translate(68,144)"/>
<path d="M0 0 C1.239 3.918 0.785 6.263 -0.699 10.027 C-3.13 13.713 -7.052 15.278 -11 17 C-11 16.34 -11 15.68 -11 15 C-12.32 14.34 -13.64 13.68 -15 13 C-12 11 -12 11 -8.5 10.375 C-4.974 9.416 -4.974 9.416 -3.949 7.129 C-3.166 4.959 -3.166 4.959 -2.605 2.777 C-2 1 -2 1 0 0 Z " fill="#5F0632" transform="translate(154,253)"/>
<path d="M0 0 C0 5.698 -5.282 9.986 -9 14 C-11.881 16.522 -14.854 18.821 -18 21 C-18 18 -18 18 -16.023 15.766 C-15.149 14.935 -14.275 14.105 -13.375 13.25 C-10.267 10.244 -7.267 7.262 -4.5 3.938 C-2 1 -2 1 0 0 Z M-20 21 C-19.67 21.66 -19.34 22.32 -19 23 C-19.66 22.67 -20.32 22.34 -21 22 C-20.67 21.67 -20.34 21.34 -20 21 Z M-22 23 C-22 23.99 -22 24.98 -22 26 C-22.66 25.67 -23.32 25.34 -24 25 C-23.34 24.34 -22.68 23.68 -22 23 Z " fill="#6D1130" transform="translate(388,432)"/>
<path d="M0 0 C0.99 0 1.98 0 3 0 C2.67 6.93 2.34 13.86 2 21 C1.34 21 0.68 21 0 21 C-4 15.706 -4 15.706 -4 12 C-3.34 12 -2.68 12 -2 12 C-1.34 8.04 -0.68 4.08 0 0 Z M-6 10 C-5.34 10.66 -4.68 11.32 -4 12 C-4.66 12 -5.32 12 -6 12 C-6 11.34 -6 10.68 -6 10 Z " fill="#81202F" transform="translate(229,452)"/>
<path d="M0 0 C5.644 2.613 10.571 5.665 15.605 9.316 C18.015 11.068 18.015 11.068 20.801 12.59 C21.889 13.288 21.889 13.288 23 14 C23 14.66 23 15.32 23 16 C17.897 15.507 14.479 12.955 10.375 10.125 C9.373 9.454 9.373 9.454 8.352 8.77 C2.379 4.72 2.379 4.72 0 2 C0 1.34 0 0.68 0 0 Z " fill="#6C1031" transform="translate(125,463)"/>
<path d="M0 0 C2 2 2 2 2.25 5 C2 8 2 8 0 10 C-0.33 9.34 -0.66 8.68 -1 8 C-2.65 8 -4.3 8 -6 8 C-6.124 6.866 -6.248 5.731 -6.375 4.562 C-6.581 3.387 -6.788 2.211 -7 1 C-7.66 0.67 -8.32 0.34 -9 0 C-5.678 -1.107 -3.359 -0.972 0 0 Z M0 3 C1 7 1 7 1 7 Z " fill="#7D1D2F" transform="translate(279,450)"/>
<path d="M0 0 C5.793 0.614 10.946 2.155 16.438 4.062 C17.264 4.344 18.091 4.626 18.943 4.916 C20.964 5.605 22.982 6.302 25 7 C25 7.33 25 7.66 25 8 C16.859 7.745 9.166 7.216 2 3 C1.34 2.01 0.68 1.02 0 0 Z M25 8 C29 9 29 9 29 9 Z M29 9 C33 10 33 10 33 10 Z " fill="#690E31" transform="translate(171,489)"/>
<path d="M0 0 C3.459 2.665 3.85 5.653 4.688 9.812 C4.939 11.015 5.19 12.218 5.449 13.457 C5.96 16.744 6.256 19.685 6 23 C5.34 23.66 4.68 24.32 4 25 C2.708 21.555 1.844 18.331 1.438 14.688 C1.41 11.204 1.41 11.204 0 10 C-0.072 8.314 -0.084 6.625 -0.062 4.938 C-0.053 4.018 -0.044 3.099 -0.035 2.152 C-0.024 1.442 -0.012 0.732 0 0 Z " fill="#7E1E2F" transform="translate(55,347)"/>

<path d="M0 0 C3.534 0.576 5.169 1.811 7.625 4.375 C8.511 5.284 8.511 5.284 9.414 6.211 C11.554 8.625 12.932 10.299 13.25 13.562 C13 16 13 16 11 18 C9.68 18 8.36 18 7 18 C7 17.34 7 16.68 7 16 C7.99 16 8.98 16 10 16 C8.859 10.295 5.808 7.525 1.68 3.734 C0 2 0 2 0 0 Z " fill="#6B0F31" transform="translate(346,410)"/>
<path d="M0 0 C0.99 0.33 1.98 0.66 3 1 C1.749 4.752 0.632 5.052 -2.75 6.938 C-6.431 9.052 -9.78 11.209 -13 14 C-13.66 13.67 -14.32 13.34 -15 13 C-13.56 9.416 -11.876 7.962 -8.625 5.938 C-6.268 4.452 -4.043 3.036 -1.898 1.254 C-1.272 0.84 -0.645 0.426 0 0 Z " fill="#751630" transform="translate(139,63)"/>
<path d="M0 0 C21.723 -0.383 21.723 -0.383 31 2 C31 2.66 31 3.32 31 4 C25.222 4.12 19.72 3.832 14 3 C14 2.67 14 2.34 14 2 C7.07 1.505 7.07 1.505 0 1 C0 0.67 0 0.34 0 0 Z " fill="#77192F" transform="translate(244,36)"/>
<path d="M0 0 C-0.928 0.454 -1.856 0.908 -2.812 1.375 C-6.039 2.942 -6.039 2.942 -9 5 C-10.294 5.603 -11.609 6.165 -12.938 6.688 C-13.607 6.959 -14.276 7.231 -14.965 7.512 C-17.328 8.079 -18.719 7.76 -21 7 C-20.196 6.711 -19.391 6.423 -18.562 6.125 C-15.867 5.267 -15.867 5.267 -15 3 C-12.383 1.895 -12.383 1.895 -9.125 0.812 C-8.055 0.448 -6.985 0.083 -5.883 -0.293 C-3 -1 -3 -1 0 0 Z M0 0 C0.66 0.33 1.32 0.66 2 1 C0.68 1.33 -0.64 1.66 -2 2 C-1.34 1.34 -0.68 0.68 0 0 Z M-18 4 C-16 5 -16 5 -16 5 Z M-23 5 C-19 6 -19 6 -19 6 Z " fill="#83222E" transform="translate(309,490)"/>
<path d="M0 0 C4.626 3.99 6.649 10.542 7.254 16.5 C7.251 18.335 7.138 20.17 7 22 C5 21 5 21 4.219 18.707 C3.982 17.752 3.744 16.797 3.5 15.812 C2.697 12.667 1.874 9.634 0.812 6.562 C0 4 0 4 0 0 Z " fill="#711430" transform="translate(416,155)"/>
<path d="M0 0 C1.32 0.66 2.64 1.32 4 2 C4.043 4 4.041 6 4 8 C3 9 3 9 0.438 9.062 C-0.367 9.042 -1.171 9.021 -2 9 C-2.66 7.68 -3.32 6.36 -4 5 C-2.68 3.35 -1.36 1.7 0 0 Z " fill="#EB7226" transform="translate(135,420)"/>
<path d="M0 0 C0.99 0 1.98 0 3 0 C1.064 6.205 -1.256 12.108 -4 18 C-4.66 18 -5.32 18 -6 18 C-5.413 13.51 -4.236 9.775 -2.438 5.625 C-1.982 4.565 -1.527 3.506 -1.059 2.414 C-0.709 1.617 -0.36 0.821 0 0 Z " fill="#6B0F31" transform="translate(180,440)"/>
<path d="M0 0 C2.6 5.199 -1.489 13.978 -3.121 19.285 C-4 21 -4 21 -7 22 C-6.405 19.456 -5.799 16.915 -5.188 14.375 C-4.939 13.306 -4.939 13.306 -4.686 12.215 C-3.613 7.803 -2.207 4.009 0 0 Z " fill="#670C31" transform="translate(423,360)"/>
<path d="M0 0 C0.799 0.018 1.598 0.036 2.422 0.055 C3.025 0.078 3.628 0.101 4.25 0.125 C4.58 1.115 4.91 2.105 5.25 3.125 C4.328 3.108 4.328 3.108 3.387 3.09 C2.174 3.076 2.174 3.076 0.938 3.062 C0.137 3.051 -0.664 3.039 -1.488 3.027 C-3.919 3.028 -3.919 3.028 -6.75 4.125 C-6.42 5.775 -6.09 7.425 -5.75 9.125 C-6.74 9.62 -6.74 9.62 -7.75 10.125 C-9.085 7.927 -9.778 6.599 -9.625 4 C-7.775 0.035 -3.982 -0.117 0 0 Z " fill="#6D1030" transform="translate(310.75,437.875)"/>
<path d="M0 0 C0.66 0 1.32 0 2 0 C1.357 4.016 -0.661 6.892 -2.875 10.25 C-3.574 11.328 -4.272 12.405 -4.992 13.516 C-5.655 14.335 -6.317 15.155 -7 16 C-7.99 16 -8.98 16 -10 16 C-8.56 11.898 -6.555 8.696 -4 5.188 C-3.299 4.212 -2.597 3.236 -1.875 2.23 C-1.256 1.494 -0.637 0.758 0 0 Z " fill="#771930" transform="translate(154,425)"/>
<path d="M0 0 C2.191 0.483 4.369 0.995 6.543 1.547 C6.543 2.537 6.543 3.527 6.543 4.547 C0.103 3.924 -6.133 2.907 -12.457 1.547 C-8.265 -1.248 -4.894 -0.903 0 0 Z " fill="#721430" transform="translate(284.45703125,39.453125)"/>
<path d="M0 0 C0.66 0 1.32 0 2 0 C3.004 2.624 4.003 5.249 5 7.875 C5.286 8.621 5.572 9.368 5.867 10.137 C8 15.773 8 15.773 8 18 C7.01 17.67 6.02 17.34 5 17 C3.613 14.199 3.613 14.199 2.312 10.688 C1.876 9.536 1.439 8.385 0.988 7.199 C0 4 0 4 0 0 Z " fill="#6D1130" transform="translate(290,445)"/>
<path d="M0 0 C0 3 0 3 0 3 Z M-2 3 C-0.864 6.409 -1.133 7.003 -2.438 10.188 C-2.725 10.903 -3.012 11.618 -3.309 12.355 C-3.651 13.17 -3.651 13.17 -4 14 C-4.66 14 -5.32 14 -6 14 C-6.33 14.99 -6.66 15.98 -7 17 C-6.44 12.406 -5.427 6.427 -2 3 Z M-6 17 C-5.67 17 -5.34 17 -5 17 C-5 22.94 -5 28.88 -5 35 C-5.33 35 -5.66 35 -6 35 C-6 29.06 -6 23.12 -6 17 Z " fill="#B4482A" transform="translate(252,212)"/>
<path d="M0 0 C1.98 0.99 1.98 0.99 4 2 C3.67 2.66 3.34 3.32 3 4 C2.01 3.34 1.02 2.68 0 2 C0 1.34 0 0.68 0 0 Z M7 7 C10.215 8.408 12.322 10.103 14.75 12.625 C15.67 13.572 15.67 13.572 16.609 14.539 C17.298 15.262 17.298 15.262 18 16 C17.67 16.66 17.34 17.32 17 18 C15.515 16.737 14.037 15.464 12.562 14.188 C11.739 13.48 10.915 12.772 10.066 12.043 C8 10 8 10 7 7 Z M20 20 C21.98 20.99 21.98 20.99 24 22 C23.01 22 22.02 22 21 22 C20.67 21.34 20.34 20.68 20 20 Z " fill="#630931" transform="translate(362,79)"/>
<path d="M0 0 C0.33 0.66 0.66 1.32 1 2 C-0.558 2.678 -2.122 3.342 -3.688 4 C-4.558 4.371 -5.428 4.743 -6.324 5.125 C-9.057 6.019 -11.147 6.164 -14 6 C-11.727 3.457 -9.549 2.124 -6.438 0.75 C-5.652 0.394 -4.867 0.038 -4.059 -0.328 C-2 -1 -2 -1 0 0 Z M-16 6 C-14 7 -14 7 -14 7 Z M-19 7 C-18.01 7.33 -17.02 7.66 -16 8 C-17.65 8.33 -19.3 8.66 -21 9 C-20.34 8.34 -19.68 7.68 -19 7 Z " fill="#6D1030" transform="translate(323,484)"/>
<path d="M0 0 C1.98 0 3.96 0 6 0 C2.331 4.514 -1.335 8.502 -6 12 C-6.66 12 -7.32 12 -8 12 C-8 11.01 -8 10.02 -8 9 C-6.031 7.176 -6.031 7.176 -3.5 5.312 C-2.665 4.69 -1.829 4.067 -0.969 3.426 C-0.319 2.955 0.331 2.485 1 2 C0.67 1.34 0.34 0.68 0 0 Z " fill="#741630" transform="translate(126,406)"/>

<path d="M0 0 C-1 2 -1 2 -3.836 3.105 C-5.004 3.463 -6.172 3.82 -7.375 4.188 C-8.538 4.552 -9.7 4.917 -10.898 5.293 C-14 6 -14 6 -17 5 C-14.662 1.494 -13.172 1.224 -9.176 0.34 C-6.065 -0.146 -3.143 -0.131 0 0 Z M-18 3 C-16 4 -16 4 -16 4 Z " fill="#761830" transform="translate(206,39)"/>
<path d="M0 0 C5.679 1.42 9.532 4.394 14 8 C13.01 9.485 13.01 9.485 12 11 C9.997 9.358 7.998 7.711 6 6.062 C5.428 5.594 4.855 5.125 4.266 4.643 C2.825 3.451 1.41 2.228 0 1 C0 0.67 0 0.34 0 0 Z " fill="#7C1C2F" transform="translate(112,454)"/>
<path d="M0 0 C1.125 1.688 1.125 1.688 2 4 C1.271 7.32 0.403 8.676 -2.25 10.812 C-5.377 12.163 -7.628 12.235 -11 12 C-11 11.01 -11 10.02 -11 9 C-8.982 8.544 -6.964 8.089 -4.945 7.633 C-2.793 7.095 -2.793 7.095 -1 5 C-0.352 2.429 -0.352 2.429 0 0 Z " fill="#791A2F" transform="translate(374,401)"/>
<path d="M0 0 C7.768 -0.67 7.768 -0.67 11.5 2.062 C14 5 14 5 14.375 8.812 C14.251 9.864 14.127 10.916 14 12 C13.773 11.443 13.546 10.886 13.312 10.312 C11.536 7.183 9.848 5.229 7 3 C4.194 2.578 1.86 2.758 -1 3 C-0.67 2.01 -0.34 1.02 0 0 Z " fill="#6A0E31" transform="translate(362,393)"/>
<path d="M0 0 C0.33 0.66 0.66 1.32 1 2 C-0.075 4.443 -1.198 6.768 -2.438 9.125 C-2.776 9.784 -3.114 10.442 -3.463 11.121 C-4.301 12.751 -5.15 14.376 -6 16 C-6.66 16 -7.32 16 -8 16 C-7.686 9.868 -4.315 4.315 0 0 Z " fill="#6F1230" transform="translate(77,130)"/>
<path d="M0 0 C1.65 0 3.3 0 5 0 C5.66 1.65 6.32 3.3 7 5 C6.34 5.66 5.68 6.32 5 7 C2.375 6.625 2.375 6.625 0 6 C0 4.02 0 2.04 0 0 Z " fill="#F27825" transform="translate(254,455)"/>
<path d="M0 0 C0.66 0.33 1.32 0.66 2 1 C-0.97 3.475 -0.97 3.475 -4 6 C-2.848 3.532 -1.952 1.952 0 0 Z M-8 5 C-7.34 5.33 -6.68 5.66 -6 6 C-8.357 9.349 -11.068 12.147 -14 15 C-14.66 14.67 -15.32 14.34 -16 14 C-13.36 11.03 -10.72 8.06 -8 5 Z " fill="#7C1C2F" transform="translate(373,449)"/>
<path d="M0 0 C0.33 0 0.66 0 1 0 C1 1.65 1 3.3 1 5 C-0.32 5 -1.64 5 -3 5 C-2.031 3.315 -1.03 1.648 0 0 Z M-5 5 C-4.34 5.33 -3.68 5.66 -3 6 C-4.667 7.667 -6.333 9.333 -8 11 C-8.557 11.598 -9.114 12.196 -9.688 12.812 C-11 14 -11 14 -13 14 C-11.417 9.726 -8.494 7.735 -5 5 Z " fill="#711430" transform="translate(121,392)"/>
<path d="M0 0 C-3 2 -3 2 -6 3 C-6.33 3.66 -6.66 4.32 -7 5 C-7.743 4.835 -8.485 4.67 -9.25 4.5 C-12.19 3.881 -12.19 3.881 -16 4 C-16 3.01 -16 2.02 -16 1 C-10.639 -0.129 -5.447 -0.097 0 0 Z " fill="#711430" transform="translate(110,381)"/>


<path d="M0 0 C0.66 0 1.32 0 2 0 C2.844 1.41 3.675 2.829 4.5 4.25 C5.196 5.433 5.196 5.433 5.906 6.641 C7 9 7 9 7 13 C6.34 13 5.68 13 5 13 C4.159 11.4 3.328 9.795 2.5 8.188 C1.804 6.848 1.804 6.848 1.094 5.48 C0 3 0 3 0 0 Z " fill="#6E1130" transform="translate(68,391)"/>
<path d="M0 0 C3.975 3.407 5.868 7.328 8 12 C7.01 12.33 6.02 12.66 5 13 C3.964 11.594 2.947 10.175 1.938 8.75 C1.369 7.961 0.801 7.172 0.215 6.359 C-1 4 -1 4 -0.684 1.703 C-0.458 1.141 -0.232 0.579 0 0 Z " fill="#751730" transform="translate(396,115)"/>
<path d="M0 0 C4.972 1.492 9.418 3.605 14 6 C14 6.66 14 7.32 14 8 C10.24 7.419 7.47 6.348 4.188 4.438 C3.397 3.982 2.607 3.527 1.793 3.059 C1.201 2.709 0.61 2.36 0 2 C0 1.34 0 0.68 0 0 Z " fill="#670D31" transform="translate(323,54)"/>
<path d="M0 0 C0.99 0 1.98 0 3 0 C2.55 4.842 1.4 7.497 -2 11 C-2.66 11 -3.32 11 -4 11 C-2.787 7.276 -1.491 3.622 0 0 Z " fill="#771830" transform="translate(410,393)"/>
<path d="M0 0 C0.33 0 0.66 0 1 0 C0.517 6.205 -0.333 11.999 -2 18 C-2.144 17.402 -2.289 16.804 -2.438 16.188 C-2.887 14.438 -3.429 12.713 -4 11 C-3.688 8.375 -3.688 8.375 -3 6 C-2.34 5.67 -1.68 5.34 -1 5 C-0.344 2.473 -0.344 2.473 0 0 Z " fill="#7F1F2F" transform="translate(426,348)"/>
<path d="M0 0 C0.33 1.32 0.66 2.64 1 4 C-1.297 5.743 -3.599 7.399 -6 9 C-5.67 9.66 -5.34 10.32 -5 11 C-5.99 11.33 -6.98 11.66 -8 12 C-8 11.34 -8 10.68 -8 10 C-9.32 9.34 -10.64 8.68 -12 8 C-9 6 -9 6 -5.438 5.125 C-1.931 4.366 -1.931 4.366 -0.562 1.875 C-0.377 1.256 -0.191 0.637 0 0 Z " fill="#87252E" transform="translate(151,258)"/>
<path d="M0 0 C0 0.66 0 1.32 0 2 C-1.786 3.03 -3.579 4.049 -5.375 5.062 C-6.872 5.915 -6.872 5.915 -8.398 6.785 C-9.257 7.186 -10.115 7.587 -11 8 C-11.66 7.67 -12.32 7.34 -13 7 C-9.007 2.711 -6.015 0 0 0 Z " fill="#6B0F31" transform="translate(154,57)"/>
<path d="M0 0 C3.875 1.75 3.875 1.75 5 4 C3.68 4 2.36 4 1 4 C1 6.31 1 8.62 1 11 C0.34 11 -0.32 11 -1 11 C-2.478 8.043 -2.06 5.258 -2 2 C-1.34 2 -0.68 2 0 2 C0 1.34 0 0.68 0 0 Z " fill="#7C1C2F" transform="translate(254,461)"/>
<path d="M0 0 C3.808 1.496 5.694 3.661 8 7 C8.75 9.312 8.75 9.312 9 11 C5.554 9.851 4.908 8.924 2.812 6.062 C2.283 5.352 1.753 4.642 1.207 3.91 C0 2 0 2 0 0 Z " fill="#6B0F31" transform="translate(88,426)"/>
<path d="M0 0 C2.236 2.236 3.244 4.29 4.625 7.125 C5.071 8.035 5.517 8.945 5.977 9.883 C6.314 10.581 6.652 11.28 7 12 C6.01 12.33 5.02 12.66 4 13 C-0.643 5.211 -0.643 5.211 -1 2 C-0.67 1.34 -0.34 0.68 0 0 Z " fill="#711430" transform="translate(75,402)"/>
<path d="M0 0 C1.65 0 3.3 0 5 0 C5.625 1.875 5.625 1.875 6 4 C5.34 4.66 4.68 5.32 4 6 C2.68 6 1.36 6 0 6 C0 4.02 0 2.04 0 0 Z " fill="#EA7226" transform="translate(273,452)"/>
<path d="M0 0 C0 4.342 -2.212 6.793 -5 10 C-7.312 11.438 -7.312 11.438 -9 12 C-7.601 7.548 -5.399 5.144 -2 2 C-1.34 1.34 -0.68 0.68 0 0 Z " fill="#791A2F" transform="translate(84,120)"/>
<path d="M0 0 C0.99 0.33 1.98 0.66 3 1 C3.125 4.375 3.125 4.375 3 8 C1 10 1 10 -1.625 10.125 C-2.409 10.084 -3.192 10.043 -4 10 C-3.34 9.464 -2.68 8.928 -2 8.375 C0.31 6.1 0.31 6.1 0.25 2.75 C0.168 1.842 0.085 0.935 0 0 Z " fill="#6F1230" transform="translate(260,454)"/>
<path d="M0 0 C1.294 0.62 2.585 1.246 3.875 1.875 C4.594 2.223 5.314 2.571 6.055 2.93 C8 4 8 4 10 6 C9.67 6.99 9.34 7.98 9 9 C7.681 8.072 6.37 7.132 5.062 6.188 C4.332 5.665 3.601 5.143 2.848 4.605 C1 3 1 3 0 0 Z " fill="#78192F" transform="translate(125,463)"/>
<path d="M0 0 C0.66 0.33 1.32 0.66 2 1 C2 1.66 2 2.32 2 3 C-3.294 7 -3.294 7 -7 7 C-7.33 5.68 -7.66 4.36 -8 3 C-6.866 2.691 -5.731 2.381 -4.562 2.062 C-1.212 1.371 -1.212 1.371 0 0 Z " fill="#7A1A2F" transform="translate(338,439)"/>
<path d="M0 0 C0.99 0.99 1.98 1.98 3 3 C2.34 4.32 1.68 5.64 1 7 C-0.32 7 -1.64 7 -3 7 C-3 6.34 -3 5.68 -3 5 C-2.01 5 -1.02 5 0 5 C0 3.35 0 1.7 0 0 Z " fill="#7F1E2F" transform="translate(356,421)"/>
<path d="M0 0 C0.99 0.33 1.98 0.66 3 1 C3 3.97 3 6.94 3 10 C2.01 10 1.02 10 0 10 C-0.91 6.93 -1.173 4.2 -1 1 C-0.67 0.67 -0.34 0.34 0 0 Z " fill="#7F1F2F" transform="translate(118,397)"/>
<path d="M0 0 C0.99 0 1.98 0 3 0 C1.801 3.083 0.523 6.063 -1 9 C-1.99 8.67 -2.98 8.34 -4 8 C-2.875 5.028 -1.777 2.666 0 0 Z " fill="#791A2F" transform="translate(162,442)"/>
<path d="M0 0 C1.98 0 3.96 0 6 0 C4.68 2.64 3.36 5.28 2 8 C0.438 6.25 0.438 6.25 -1 4 C-0.688 1.75 -0.688 1.75 0 0 Z " fill="#912D2D" transform="translate(103,383)"/>
<path d="M0 0 C0.99 0.33 1.98 0.66 3 1 C2.216 1.248 1.433 1.495 0.625 1.75 C-2.423 3.201 -2.725 3.996 -4 7 C-5.625 8.75 -5.625 8.75 -7 10 C-7 5.69 -4.833 4.103 -2 1 C-1.34 0.67 -0.68 0.34 0 0 Z M-11 11 C-10.01 11.495 -10.01 11.495 -9 12 C-9.99 12.495 -9.99 12.495 -11 13 C-11 12.34 -11 11.68 -11 11 Z " fill="#C25229" transform="translate(284,259)"/>
<path d="M0 0 C3 1 3 1 4.688 3.312 C6 6 6 6 6 10 C5.34 10 4.68 10 4 10 C0 3.375 0 3.375 0 0 Z " fill="#6D1130" transform="translate(402,127)"/>
<path d="M0 0 C0.66 0 1.32 0 2 0 C3.65 2.97 5.3 5.94 7 9 C5.68 9 4.36 9 3 9 C0 3.375 0 3.375 0 0 Z " fill="#6E1230" transform="translate(304,447)"/>
<path d="M0 0 C2.458 3.687 3.012 6.697 4 11 C3.01 11.33 2.02 11.66 1 12 C-0.806 7.538 -1.117 4.69 0 0 Z " fill="#6E1130" transform="translate(61,368)"/>
<path d="M0 0 C0.33 0.99 0.66 1.98 1 3 C-2.3 2.67 -5.6 2.34 -9 2 C-5.233 0.117 -3.97 -0.221 0 0 Z M1 1 C3.31 1 5.62 1 8 1 C8 1.33 8 1.66 8 2 C5.69 2 3.38 2 1 2 C1 1.67 1 1.34 1 1 Z " fill="#78192F" transform="translate(209,498)"/>
<path d="M0 0 C-0.75 1.938 -0.75 1.938 -2 4 C-3.326 4.362 -4.659 4.697 -6 5 C-6.33 5.99 -6.66 6.98 -7 8 C-7.66 7.01 -8.32 6.02 -9 5 C-7.879 4.161 -6.753 3.329 -5.625 2.5 C-4.999 2.036 -4.372 1.572 -3.727 1.094 C-2 0 -2 0 0 0 Z " fill="#7B1B2F" transform="translate(330,425)"/>

<path d="M0 0 C0 4.39 -2.128 5.769 -5 9 C-5.33 7.68 -5.66 6.36 -6 5 C-4.02 3.35 -2.04 1.7 0 0 Z M-9 10 C-8.01 10.495 -8.01 10.495 -7 11 C-7.99 11.495 -7.99 11.495 -9 12 C-9 11.34 -9 10.68 -9 10 Z " fill="#6D1130" transform="translate(89,112)"/>
<path d="M0 0 C2.64 0.33 5.28 0.66 8 1 C8 1.66 8 2.32 8 3 C8.66 3.33 9.32 3.66 10 4 C9.34 4.66 8.68 5.32 8 6 C6.664 5.192 5.331 4.378 4 3.562 C3.257 3.11 2.515 2.658 1.75 2.191 C1.173 1.798 0.595 1.405 0 1 C0 0.67 0 0.34 0 0 Z " fill="#7B1B2F" transform="translate(335,62)"/>
<path d="M0 0 C1.32 0.66 2.64 1.32 4 2 C3.67 3.32 3.34 4.64 3 6 C0.525 5.01 0.525 5.01 -2 4 C-1.34 2.68 -0.68 1.36 0 0 Z " fill="#E56E26" transform="translate(139,415)"/>
<path d="M0 0 C0.66 0.33 1.32 0.66 2 1 C-3 7.571 -3 7.571 -8 9 C-5.899 5.018 -3.631 2.65 0 0 Z " fill="#690E31" transform="translate(358,460)"/>
<path d="M0 0 C0.99 0 1.98 0 3 0 C3.66 0.99 4.32 1.98 5 3 C8.568 3.736 8.568 3.736 12 4 C12 4.33 12 4.66 12 5 C6.763 6.047 6.763 6.047 4 6 C1.5 4.188 1.5 4.188 0 2 C0 1.34 0 0.68 0 0 Z " fill="#7D1D2F" transform="translate(188,459)"/>
<path d="M0 0 C2.97 0 5.94 0 9 0 C9.33 0.99 9.66 1.98 10 3 C6.7 2.67 3.4 2.34 0 2 C0 1.34 0 0.68 0 0 Z " fill="#670C31" transform="translate(306,438)"/>
<path d="M0 0 C0.66 0 1.32 0 2 0 C1.403 3.342 0.264 5.464 -2 8 C-2.66 8 -3.32 8 -4 8 C-2.875 5.028 -1.777 2.666 0 0 Z " fill="#6A0E31" transform="translate(154,425)"/>
<path d="M0 0 C1.574 3.149 0.719 5.645 0 9 C-1.485 9.99 -1.485 9.99 -3 11 C-2.25 3.375 -2.25 3.375 0 0 Z " fill="#650B31" transform="translate(423,360)"/>
<path d="M0 0 C2.884 1.293 4.872 2.659 7 5 C6.34 5.66 5.68 6.32 5 7 C1.185 4.538 1.185 4.538 0.25 1.812 C0.168 1.214 0.085 0.616 0 0 Z " fill="#6E1230" transform="translate(356,74)"/>
<path d="M0 0 C2.468 1.152 4.048 2.048 6 4 C5.67 4.99 5.34 5.98 5 7 C3.291 5.377 1.626 3.707 0 2 C0 1.34 0 0.68 0 0 Z " fill="#6C1030" transform="translate(139,412)"/>
<path d="M0 0 C3.081 2.773 4.688 5.063 6 9 C2.839 7.63 2.007 7.011 0 4 C0 2.68 0 1.36 0 0 Z " fill="#6D1130" transform="translate(374,373)"/>
<path d="M0 0 C2.398 2.398 2.343 3.333 2.625 6.625 C2.7 7.442 2.775 8.26 2.852 9.102 C2.901 9.728 2.95 10.355 3 11 C2.67 10.01 2.34 9.02 2 8 C1.01 7.67 0.02 7.34 -1 7 C-0.67 4.69 -0.34 2.38 0 0 Z " fill="#7E1E2F" transform="translate(423,173)"/>
<path d="M0 0 C0.66 1.32 1.32 2.64 2 4 C1.01 5.485 1.01 5.485 0 7 C-0.66 7 -1.32 7 -2 7 C-1.34 4.69 -0.68 2.38 0 0 Z M-1 7 C-0.67 8.32 -0.34 9.64 0 11 C-0.99 11.495 -0.99 11.495 -2 12 C-1.67 10.35 -1.34 8.7 -1 7 Z " fill="#84232E" transform="translate(68,144)"/>
<path d="M0 0 C0.66 0 1.32 0 2 0 C2.66 2.31 3.32 4.62 4 7 C3.01 7 2.02 7 1 7 C0.67 4.69 0.34 2.38 0 0 Z " fill="#761730" transform="translate(290,445)"/>
<path d="M0 0 C1.98 0 3.96 0 6 0 C4.02 2.31 2.04 4.62 0 7 C-0.66 6.67 -1.32 6.34 -2 6 C-1.01 4.68 -0.02 3.36 1 2 C0.67 1.34 0.34 0.68 0 0 Z " fill="#650B31" transform="translate(126,406)"/>
<path d="M0 0 C0.99 0 1.98 0 3 0 C2.67 1.98 2.34 3.96 2 6 C1.01 6 0.02 6 -1 6 C-1.33 6.99 -1.66 7.98 -2 9 C-1.514 5.877 -1.001 3.004 0 0 Z " fill="#7C1D2F" transform="translate(60,165)"/>
<path d="M0 0 C0.66 0.33 1.32 0.66 2 1 C1 4 1 4 -1.438 5.75 C-2.706 6.369 -2.706 6.369 -4 7 C-4.66 6.67 -5.32 6.34 -6 6 C-4 4 -2 2 0 0 Z " fill="#6F1330" transform="translate(350,466)"/>
<path d="M0 0 C1.65 1.65 3.3 3.3 5 5 C4.67 5.66 4.34 6.32 4 7 C0.264 5.755 -0.188 4.366 -2 1 C-1.34 0.67 -0.68 0.34 0 0 Z " fill="#7D1D2F" transform="translate(221,457)"/>
<path d="M0 0 C0.66 0.33 1.32 0.66 2 1 C2.625 3.062 2.625 3.062 3 5 C2.01 5.33 1.02 5.66 0 6 C-0.33 6.99 -0.66 7.98 -1 9 C-0.67 6.03 -0.34 3.06 0 0 Z M3 5 C3.66 5.66 4.32 6.32 5 7 C4.34 7 3.68 7 3 7 C3 6.34 3 5.68 3 5 Z " fill="#670C31" transform="translate(216,451)"/>
<path d="M0 0 C2.64 0 5.28 0 8 0 C8 0.66 8 1.32 8 2 C3.545 2.495 3.545 2.495 -1 3 C-0.67 2.01 -0.34 1.02 0 0 Z " fill="#640A31" transform="translate(362,393)"/>
<path d="M0 0 C1.98 0.66 3.96 1.32 6 2 C6 2.99 6 3.98 6 5 C4.02 4.34 2.04 3.68 0 3 C0 2.01 0 1.02 0 0 Z " fill="#7F1F2F" transform="translate(382,384)"/>
<path d="M0 0 C0.981 3.053 0.981 4.947 0 8 C-0.66 8 -1.32 8 -2 8 C-2 5.69 -2 3.38 -2 1 C-1.34 0.67 -0.68 0.34 0 0 Z " fill="#660B31" transform="translate(154,253)"/>
<path d="M0 0 C0.99 0.33 1.98 0.66 3 1 C1.35 2.65 -0.3 4.3 -2 6 C-2.66 5.67 -3.32 5.34 -4 5 C-2.25 1.125 -2.25 1.125 0 0 Z " fill="#761830" transform="translate(128,71)"/>
<path d="M0 0 C0 0.66 0 1.32 0 2 C-1.98 2.66 -3.96 3.32 -6 4 C-6 3.01 -6 2.02 -6 1 C-4 0 -4 0 0 0 Z M-8 2 C-6 3 -6 3 -6 3 Z " fill="#741630" transform="translate(160,54)"/>
<path d="M0 0 C2.31 0.33 4.62 0.66 7 1 C6.67 1.99 6.34 2.98 6 4 C3.69 3.34 1.38 2.68 -1 2 C-0.67 1.34 -0.34 0.68 0 0 Z " fill="#7E1E2F" transform="translate(166,487)"/>
<path d="M0 0 C1.429 2.354 2.087 3.48 1.625 6.25 C1.419 6.827 1.213 7.405 1 8 C0.01 8 -0.98 8 -2 8 C-1.34 5.36 -0.68 2.72 0 0 Z " fill="#801F2F" transform="translate(204,454)"/>
<path d="M0 0 C0.99 0.33 1.98 0.66 3 1 C3 3.31 3 5.62 3 8 C2.34 7.67 1.68 7.34 1 7 C0.593 4.678 0.256 2.343 0 0 Z " fill="#670C31" transform="translate(204,451)"/>
<path d="M0 0 C-0.33 1.32 -0.66 2.64 -1 4 C-1.66 4 -2.32 4 -3 4 C-3.33 4.66 -3.66 5.32 -4 6 C-4 5.01 -4 4.02 -4 3 C-4.66 2.67 -5.32 2.34 -6 2 C-2.25 0 -2.25 0 0 0 Z " fill="#8D2A2E" transform="translate(332,431)"/>
<path d="M0 0 C1.938 0.75 1.938 0.75 4 2 C4.75 4.125 4.75 4.125 5 6 C2.5 4.688 2.5 4.688 0 3 C0 2.01 0 1.02 0 0 Z " fill="#6F1230" transform="translate(358,406)"/>
<path d="M0 0 C0.66 0 1.32 0 2 0 C1.75 2.375 1.75 2.375 1 5 C-1.062 6.312 -1.062 6.312 -3 7 C-1.125 2.25 -1.125 2.25 0 0 Z " fill="#6B0F31" transform="translate(405,404)"/>
<path d="M0 0 C0.66 0 1.32 0 2 0 C0.951 2.622 0.351 3.794 -2.125 5.25 C-2.744 5.498 -3.362 5.745 -4 6 C-2.848 3.532 -1.952 1.952 0 0 Z " fill="#690E31" transform="translate(112,400)"/>
<path d="M0 0 C0.99 0 1.98 0 3 0 C3.66 1.65 4.32 3.3 5 5 C4.01 5.33 3.02 5.66 2 6 C1.34 4.02 0.68 2.04 0 0 Z " fill="#791A2F" transform="translate(407,137)"/>
<path d="M0 0 C-0.66 1.98 -1.32 3.96 -2 6 C-2.99 5.67 -3.98 5.34 -5 5 C-4.625 3.062 -4.625 3.062 -4 1 C-2 0 -2 0 0 0 Z " fill="#86242E" transform="translate(419,381)"/>
<path d="M0 0 C1.5 1.188 1.5 1.188 3 3 C3.188 5.688 3.188 5.688 3 8 C0.376 4.939 0 4.268 0 0 Z " fill="#610732" transform="translate(416,155)"/>
<path d="M0 0 C1.376 1.29 2.708 2.627 4 4 C4 4.66 4 5.32 4 6 C2.062 5.688 2.062 5.688 0 5 C-0.33 4.01 -0.66 3.02 -1 2 C-0.67 1.34 -0.34 0.68 0 0 Z " fill="#801F2F" transform="translate(396,115)"/>
<path d="M0 0 C1.875 0.25 1.875 0.25 4 1 C5.25 3.062 5.25 3.062 6 5 C4.125 4.75 4.125 4.75 2 4 C0.75 1.938 0.75 1.938 0 0 Z " fill="#6A0F31" transform="translate(384,102)"/>
<path d="M0 0 C0.66 0 1.32 0 2 0 C2.33 1.98 2.66 3.96 3 6 C2.01 5.67 1.02 5.34 0 5 C0 3.35 0 1.7 0 0 Z " fill="#7F1E2F" transform="translate(273,464)"/>
<path d="M0 0 C0.33 0 0.66 0 1 0 C1 2.31 1 4.62 1 7 C0.01 6.67 -0.98 6.34 -2 6 C-1.34 4.02 -0.68 2.04 0 0 Z " fill="#6C1031" transform="translate(189,452)"/>
<path d="M0 0 C0.99 0.33 1.98 0.66 3 1 C2.34 2.65 1.68 4.3 1 6 C0.34 6 -0.32 6 -1 6 C-0.67 4.02 -0.34 2.04 0 0 Z " fill="#7B1C2F" transform="translate(175,452)"/>
<path d="M0 0 C1.65 0.33 3.3 0.66 5 1 C5 1.99 5 2.98 5 4 C3.02 3.34 1.04 2.68 -1 2 C-0.67 1.34 -0.34 0.68 0 0 Z " fill="#81202F" transform="translate(169,434)"/>
<path d="M0 0 C1.32 0 2.64 0 4 0 C4.66 1.32 5.32 2.64 6 4 C5.01 4.33 4.02 4.66 3 5 C2.01 3.35 1.02 1.7 0 0 Z " fill="#7A1B2F" transform="translate(84,422)"/>
<path d="M0 0 C2.97 1.98 2.97 1.98 6 4 C5.01 4.66 4.02 5.32 3 6 C0 2.25 0 2.25 0 0 Z " fill="#7B1C2F" transform="translate(76,409)"/>
<path d="M0 0 C0.99 0 1.98 0 3 0 C3 1.65 3 3.3 3 5 C2.01 5 1.02 5 0 5 C0 3.35 0 1.7 0 0 Z " fill="#6E1130" transform="translate(310,237)"/>
<path d="M0 0 C2.97 0.495 2.97 0.495 6 1 C6 1.99 6 2.98 6 4 C4.02 3.34 2.04 2.68 0 2 C0 1.34 0 0.68 0 0 Z " fill="#660B31" transform="translate(308,48)"/>
<path d="M0 0 C0.99 0.33 1.98 0.66 3 1 C1.515 2.485 1.515 2.485 0 4 C-0.99 3.67 -1.98 3.34 -3 3 C-2.01 2.01 -1.02 1.02 0 0 Z " fill="#670C31" transform="translate(325,481)"/>
<path d="M0 0 C0.66 1.65 1.32 3.3 2 5 C1.01 5 0.02 5 -1 5 C-2.688 3 -2.688 3 -4 1 C-2 0 -2 0 0 0 Z " fill="#7A1B2F" transform="translate(318,440)"/>
<path d="M0 0 C3 2 3 2 4 5 C3.34 5.66 2.68 6.32 2 7 C1.67 6.01 1.34 5.02 1 4 C0.34 3.67 -0.32 3.34 -1 3 C-0.67 2.01 -0.34 1.02 0 0 Z " fill="#922D2D" transform="translate(163,430)"/>
<path d="M0 0 C0 3 0 3 -1.5 4.688 C-1.995 5.121 -2.49 5.554 -3 6 C-3 4.68 -3 3.36 -3 2 C-2.01 1.34 -1.02 0.68 0 0 Z " fill="#7E1E2F" transform="translate(105,391)"/>
<path d="M0 0 C1.98 0.99 1.98 0.99 4 2 C4 2.99 4 3.98 4 5 C3.01 4.67 2.02 4.34 1 4 C0.312 1.938 0.312 1.938 0 0 Z " fill="#660B31" transform="translate(392,112)"/>
<path d="M0 0 C1.65 0 3.3 0 5 0 C5 0.66 5 1.32 5 2 C3.02 2.33 1.04 2.66 -1 3 C-0.67 2.01 -0.34 1.02 0 0 Z " fill="#690E31" transform="translate(169,48)"/>
<path d="M0 0 C2.475 0.99 2.475 0.99 5 2 C5 2.66 5 3.32 5 4 C3.062 3.688 3.062 3.688 1 3 C0.67 2.01 0.34 1.02 0 0 Z " fill="#5D0432" transform="translate(125,463)"/>
<path d="M0 0 C1.32 1.32 2.64 2.64 4 4 C3.67 4.99 3.34 5.98 3 7 C3 6.34 3 5.68 3 5 C1.68 4.67 0.36 4.34 -1 4 C-0.67 2.68 -0.34 1.36 0 0 Z " fill="#690E31" transform="translate(324,430)"/>
<path d="M0 0 C0.33 1.32 0.66 2.64 1 4 C-0.32 4.33 -1.64 4.66 -3 5 C-1.125 1.125 -1.125 1.125 0 0 Z " fill="#7C1D2F" transform="translate(145,417)"/>
<path d="M0 0 C0.99 0.33 1.98 0.66 3 1 C1.68 2.32 0.36 3.64 -1 5 C-1.33 4.34 -1.66 3.68 -2 3 C-1.34 2.01 -0.68 1.02 0 0 Z " fill="#751730" transform="translate(359,395)"/>
<path d="M0 0 C0.99 0 1.98 0 3 0 C2.67 1.65 2.34 3.3 2 5 C1.01 5 0.02 5 -1 5 C-0.67 3.35 -0.34 1.7 0 0 Z " fill="#6F1330" transform="translate(419,370)"/>

<path d="M0 0 C2.438 0.375 2.438 0.375 5 1 C5.33 1.66 5.66 2.32 6 3 C5.01 3.33 4.02 3.66 3 4 C3 3.34 3 2.68 3 2 C2.01 1.67 1.02 1.34 0 1 C0 0.67 0 0.34 0 0 Z " fill="#A1392C" transform="translate(140,266)"/>
<path d="M0 0 C0.66 0.33 1.32 0.66 2 1 C0.68 2.32 -0.64 3.64 -2 5 C-2.66 4.67 -3.32 4.34 -4 4 C-2.68 2.68 -1.36 1.36 0 0 Z " fill="#670C31" transform="translate(145,60)"/>
<path d="M0 0 C1.32 0.66 2.64 1.32 4 2 C4 2.66 4 3.32 4 4 C1.525 3.01 1.525 3.01 -1 2 C-0.67 1.34 -0.34 0.68 0 0 Z " fill="#7B1B2F" transform="translate(148,478)"/>
<path d="M0 0 C0.66 0.33 1.32 0.66 2 1 C0.625 2.5 0.625 2.5 -1 4 C-1.66 4 -2.32 4 -3 4 C-3 3.01 -3 2.02 -3 1 C-2.01 0.67 -1.02 0.34 0 0 Z " fill="#6E1230" transform="translate(311,455)"/>
<path d="M0 0 C1.32 0.33 2.64 0.66 4 1 C3.01 2.485 3.01 2.485 2 4 C1.34 4 0.68 4 0 4 C0 2.68 0 1.36 0 0 Z " fill="#EA7126" transform="translate(105,383)"/>
<path d="M0 0 C0.33 1.32 0.66 2.64 1 4 C-0.485 4.99 -0.485 4.99 -2 6 C-1.125 1.125 -1.125 1.125 0 0 Z " fill="#630931" transform="translate(63,160)"/>
<path d="M0 0 C1.32 0.33 2.64 0.66 4 1 C4 1.99 4 2.98 4 4 C2.68 3.34 1.36 2.68 0 2 C0 1.34 0 0.68 0 0 Z " fill="#6C1031" transform="translate(344,66)"/>
<path d="M0 0 C1.98 0.495 1.98 0.495 4 1 C4 1.66 4 2.32 4 3 C2.35 2.67 0.7 2.34 -1 2 C-0.67 1.34 -0.34 0.68 0 0 Z " fill="#6A0E31" transform="translate(333,59)"/>
<path d="M0 0 C0.99 0.33 1.98 0.66 3 1 C3 1.99 3 2.98 3 4 C2.34 4 1.68 4 1 4 C0.67 2.68 0.34 1.36 0 0 Z M3 4 C5 5 5 5 5 5 Z " fill="#640A31" transform="translate(80,414)"/>
<path d="M0 0 C0.99 0.33 1.98 0.66 3 1 C2.67 2.65 2.34 4.3 2 6 C0 3 0 3 0 0 Z " fill="#791A2F" transform="translate(66,387)"/>
<path d="M0 0 C0.99 0.33 1.98 0.66 3 1 C3.33 1.99 3.66 2.98 4 4 C2.68 3.67 1.36 3.34 0 3 C0 2.01 0 1.02 0 0 Z " fill="#640931" transform="translate(402,127)"/>
<path d="M0 0 C1.98 0.99 1.98 0.99 4 2 C3.34 2.66 2.68 3.32 2 4 C1.34 3.67 0.68 3.34 0 3 C0 2.01 0 1.02 0 0 Z " fill="#731530" transform="translate(135,470)"/>
<path d="M0 0 C0.99 0 1.98 0 3 0 C2.67 1.65 2.34 3.3 2 5 C1.34 4.34 0.68 3.68 0 3 C0 2.01 0 1.02 0 0 Z " fill="#791A2F" transform="translate(180,440)"/>
<path d="M0 0 C1.98 0.99 1.98 0.99 4 2 C3.67 2.66 3.34 3.32 3 4 C2.01 3.34 1.02 2.68 0 2 C0 1.34 0 0.68 0 0 Z " fill="#731530" transform="translate(376,378)"/>


<path d="M0 0 C0.33 0.66 0.66 1.32 1 2 C0.01 3.485 0.01 3.485 -1 5 C-1.66 5 -2.32 5 -3 5 C-1.125 1.125 -1.125 1.125 0 0 Z " fill="#630931" transform="translate(77,130)"/>
<path d="M0 0 C0.99 1.32 1.98 2.64 3 4 C1.68 4 0.36 4 -1 4 C-0.67 2.68 -0.34 1.36 0 0 Z " fill="#86242E" transform="translate(308,452)"/>
<path d="M0 0 C1.98 0.99 1.98 0.99 4 2 C2.515 2.99 2.515 2.99 1 4 C0.67 2.68 0.34 1.36 0 0 Z " fill="#711430" transform="translate(328,439)"/>
<path d="M0 0 C0.99 0.33 1.98 0.66 3 1 C2.67 1.66 2.34 2.32 2 3 C0.68 2.34 -0.64 1.68 -2 1 C-1.34 0.67 -0.68 0.34 0 0 Z " fill="#7E1D2F" transform="translate(304,439)"/>
<path d="M0 0 C1.32 0.33 2.64 0.66 4 1 C4 1.66 4 2.32 4 3 C2.68 2.67 1.36 2.34 0 2 C0 1.34 0 0.68 0 0 Z " fill="#5D0432" transform="translate(329,57)"/>
<path d="M0 0 C0 0.99 0 1.98 0 3 C-1.32 2.34 -2.64 1.68 -4 1 C-2 0 -2 0 0 0 Z " fill="#751730" transform="translate(160,483)"/>
<path d="M0 0 C0.99 0.33 1.98 0.66 3 1 C3 1.66 3 2.32 3 3 C2.01 3 1.02 3 0 3 C0 2.01 0 1.02 0 0 Z " fill="#6C1031" transform="translate(145,476)"/>
<path d="M0 0 C0 0.99 0 1.98 0 3 C-1.32 2.34 -2.64 1.68 -4 1 C-2 0 -2 0 0 0 Z " fill="#781930" transform="translate(145,475)"/>
<path d="M0 0 C1.485 0.99 1.485 0.99 3 2 C3 2.66 3 3.32 3 4 C2.01 3.67 1.02 3.34 0 3 C0 2.01 0 1.02 0 0 Z " fill="#670C31" transform="translate(295,459)"/>
<path d="M0 0 C0.66 1.32 1.32 2.64 2 4 C1.01 3.67 0.02 3.34 -1 3 C-0.67 2.01 -0.34 1.02 0 0 Z " fill="#942F2D" transform="translate(159,447)"/>
<path d="M0 0 C0.66 0.33 1.32 0.66 2 1 C2 1.66 2 2.32 2 3 C1.01 3.33 0.02 3.66 -1 4 C-0.67 2.68 -0.34 1.36 0 0 Z " fill="#89272E" transform="translate(338,439)"/>
<path d="M0 0 C0.66 1.32 1.32 2.64 2 4 C1.01 4 0.02 4 -1 4 C-0.67 2.68 -0.34 1.36 0 0 Z " fill="#7D1D2F" transform="translate(68,144)"/>
<path d="M0 0 C0 0.99 0 1.98 0 3 C-1.32 2.34 -2.64 1.68 -4 1 C-2 0 -2 0 0 0 Z " fill="#7A1B2F" transform="translate(323,53)"/>
<path d="M0 0 C0.66 0.33 1.32 0.66 2 1 C1.67 1.99 1.34 2.98 1 4 C0.34 4 -0.32 4 -1 4 C-0.67 2.68 -0.34 1.36 0 0 Z " fill="#801F2F" transform="translate(167,49)"/>
<path d="M0 0 C0.66 0 1.32 0 2 0 C2 0.99 2 1.98 2 3 C1.01 2.67 0.02 2.34 -1 2 C-0.67 1.34 -0.34 0.68 0 0 Z " fill="#791A2F" transform="translate(382,384)"/>
</svg>